<svg width="64" height="64" viewBox="0 0 64 64" fill="none" xmlns="http://www.w3.org/2000/svg">
<g clip-path="url(#clip0_21_150)">
<path d="M-15.9985 42.9194H84.0013V63.0342C84.0013 63.9864 83.2292 64.7584 82.2771 64.7584H-14.2743C-15.2265 64.7584 -15.9985 63.9864 -15.9985 63.0342V42.9194Z" fill="#73AF00"/>
<path d="M-14.2743 -0.758667H82.2773C83.2294 -0.758667 84.0015 0.0134009 84.0015 0.965547V21.0804H-15.9985V0.965547C-15.9985 0.0134009 -15.2265 -0.758667 -14.2743 -0.758667Z" fill="#82AFFF"/>
<path d="M84.0013 21.08H-15.9985V42.9178H84.0013V21.08Z" fill="#FF4B55"/>
<path d="M36.3531 39.1499C32.484 39.1499 29.3451 36.011 29.3451 32.1386C29.3451 28.2729 32.484 25.1273 36.3531 25.1273C37.7928 25.1273 39.1203 25.5698 40.2266 26.3192C40.3959 26.4341 40.5893 26.2112 40.4475 26.0638C38.7939 24.3448 36.4537 23.2958 33.8592 23.3845C29.4014 23.5366 25.7112 27.1105 25.4262 31.5618C25.0998 36.6602 29.1369 40.8973 34.1635 40.8973C36.6393 40.8973 38.8645 39.8622 40.4537 38.2073C40.5939 38.0612 40.4002 37.8419 40.2326 37.9555C39.1252 38.7067 37.7953 39.1499 36.3531 39.1499Z" fill="#F5F5F5"/>
<path d="M42.4887 27.8222L43.2158 29.8665L45.1756 28.935C45.3233 28.8647 45.4774 29.0188 45.407 29.1665L44.4756 31.1263L46.5199 31.8534C46.674 31.9081 46.674 32.1261 46.5199 32.1807L44.4756 32.9079L45.407 34.8677C45.4774 35.0153 45.3233 35.1694 45.1756 35.0991L43.2158 34.1677L42.4887 36.212C42.434 36.3661 42.216 36.3661 42.1613 36.212L41.4342 34.1677L39.4744 35.0991C39.3268 35.1694 39.1727 35.0153 39.243 34.8677L40.1744 32.9079L38.1301 32.1807C37.976 32.1261 37.976 31.9081 38.1301 31.8534L40.1744 31.1263L39.243 29.1665C39.1727 29.0188 39.3268 28.8647 39.4744 28.935L41.4342 29.8665L42.1613 27.8222C42.2162 27.6682 42.434 27.6682 42.4887 27.8222Z" fill="#F5F5F5"/>
</g>
<defs>
<clipPath id="clip0_21_150">
<rect width="64" height="64" rx="32" fill="white"/>
</clipPath>
</defs>
</svg>
