<svg width="64" height="64" viewBox="0 0 64 64" fill="none" xmlns="http://www.w3.org/2000/svg">
<g clip-path="url(#clip0_45_349)">
<path d="M80.2753 64.7585H-16.276C-17.2282 64.7585 -18.0002 63.9864 -18.0002 63.0343V0.965426C-18.0002 0.0132789 -17.2282 -0.758789 -16.276 -0.758789H80.2755C81.2277 -0.758789 81.9998 0.0132789 81.9998 0.965426V63.0343C81.9996 63.9866 81.2275 64.7585 80.2753 64.7585Z" fill="#F5F5F5"/>
<path d="M74 27.1724H36.3449V-1H27.6551V27.1724H-10V35.8621H27.6551V65H36.3449V35.8621H74V27.1724Z" fill="#FF4B55"/>
<path d="M14.6206 13.6071C13.186 13.7513 11.7807 13.8959 10.3733 14.0406C10.5181 12.6331 10.6624 11.2277 10.807 9.79333C9.49135 9.96347 8.16392 9.96347 6.8483 9.79333C6.99251 11.2277 7.13705 12.6333 7.28192 14.0406C5.87443 13.896 4.4689 13.7515 3.03467 13.6071C3.2048 14.9226 3.2048 16.2502 3.03467 17.5656C4.46923 17.4214 5.87459 17.2769 7.28192 17.1322C7.13722 18.5397 6.99268 19.945 6.8483 21.3794C8.16392 21.2093 9.49135 21.2093 10.807 21.3794C10.6628 19.945 10.5181 18.5395 10.3733 17.1322C11.7808 17.2767 13.1862 17.4213 14.6206 17.5656C14.4506 16.2502 14.4506 14.9224 14.6206 13.6071Z" fill="#FF4B55"/>
<path d="M60.9653 13.6071C59.5308 13.7513 58.1254 13.8959 56.7181 14.0406C56.8628 12.6331 57.0071 11.2277 57.1517 9.79333C55.8361 9.96347 54.5086 9.96347 53.193 9.79333C53.3372 11.2277 53.4818 12.6333 53.6266 14.0406C52.2192 13.896 50.8136 13.7515 49.3794 13.6071C49.5495 14.9226 49.5495 16.2502 49.3794 17.5656C50.814 17.4214 52.2193 17.2769 53.6266 17.1322C53.4819 18.5397 53.3374 19.945 53.193 21.3794C54.5086 21.2093 55.8361 21.2093 57.1517 21.3794C57.0075 19.945 56.8628 18.5395 56.7181 17.1322C58.1256 17.2767 59.5309 17.4213 60.9653 17.5656C60.7953 16.2502 60.7953 14.9224 60.9653 13.6071Z" fill="#FF4B55"/>
<path d="M14.6206 45.469C13.186 45.6132 11.7807 45.7577 10.3733 45.9024C10.5181 44.4949 10.6624 43.0896 10.807 41.6552C9.49135 41.8253 8.16392 41.8253 6.8483 41.6552C6.99251 43.0896 7.13705 44.4951 7.28192 45.9024C5.87443 45.7579 4.4689 45.6133 3.03467 45.469C3.2048 46.7844 3.2048 48.112 3.03467 49.4275C4.46923 49.2832 5.87459 49.1387 7.28192 48.994C7.13722 50.4015 6.99268 51.8069 6.8483 53.2413C8.16392 53.0711 9.49135 53.0711 10.807 53.2413C10.6628 51.8069 10.5181 50.4013 10.3733 48.994C11.7808 49.1385 13.1862 49.2831 14.6206 49.4275C14.4506 48.1122 14.4506 46.7844 14.6206 45.469Z" fill="#FF4B55"/>
<path d="M60.9653 45.469C59.5308 45.6132 58.1254 45.7577 56.7181 45.9024C56.8628 44.4949 57.0071 43.0896 57.1517 41.6552C55.8361 41.8253 54.5086 41.8253 53.193 41.6552C53.3372 43.0896 53.4818 44.4951 53.6266 45.9024C52.2192 45.7579 50.8136 45.6133 49.3794 45.469C49.5495 46.7844 49.5495 48.112 49.3794 49.4275C50.814 49.2832 52.2193 49.1387 53.6266 48.994C53.4819 50.4015 53.3374 51.8069 53.193 53.2413C54.5086 53.0711 55.8361 53.0711 57.1517 53.2413C57.0075 51.8069 56.8628 50.4013 56.7181 48.994C58.1256 49.1385 59.5309 49.2831 60.9653 49.4275C60.7953 48.1122 60.7953 46.7844 60.9653 45.469Z" fill="#FF4B55"/>
</g>
<defs>
<clipPath id="clip0_45_349">
<rect width="64" height="64" rx="32" fill="white"/>
</clipPath>
</defs>
</svg>
