<svg width="64" height="64" viewBox="0 0 64 64" fill="none" xmlns="http://www.w3.org/2000/svg">
<g clip-path="url(#clip0_21_160)">
<path d="M80.2763 64.7587H-16.2751C-17.2272 64.7587 -17.9993 63.9866 -17.9993 63.0345V0.965609C-17.9993 0.0134621 -17.2272 -0.758606 -16.2751 -0.758606H80.2765C81.2287 -0.758606 82.0007 0.0134621 82.0007 0.965609V63.0345C82.0005 63.9868 81.2285 64.7587 80.2763 64.7587Z" fill="#FF4B55"/>
<path d="M50.2376 37.1421C50.2376 37.1421 46.8029 36.5694 44.2585 34.4595C43.508 33.837 42.4187 33.3614 41.3578 33.0099C42.2107 32.972 43.1154 32.9958 43.9703 33.1687C47.5117 33.8847 50.9454 32.1657 50.9454 32.1657C50.9454 32.1657 47.4808 32.5153 44.4718 31.1476C43.658 30.7776 42.6025 30.6034 41.5722 30.53C42.3132 30.3169 43.0996 30.1501 43.8759 30.1071C47.4835 29.9071 50.373 27.378 50.373 27.378C50.373 27.378 47.1085 28.5898 43.8519 28.0247C42.9035 27.8601 41.7392 27.9833 40.6558 28.2011C41.3685 27.7534 42.1533 27.3351 42.9675 27.0657C46.3976 25.9308 48.5265 22.7349 48.5265 22.7349C48.5265 22.7349 45.6915 24.757 42.4003 25.0618C41.423 25.1523 40.3099 25.5911 39.3054 26.0964C39.8849 25.4611 40.5464 24.8322 41.2789 24.3462C44.2892 22.3484 45.5019 18.7048 45.5019 18.7048C45.5019 18.7048 43.2994 21.4019 40.2043 22.5624C39.3605 22.8788 38.4861 23.5124 37.7007 24.1952C38.0761 23.5128 38.5173 22.8302 39.0416 22.2439C41.4496 19.5503 41.7021 15.7187 41.7021 15.7187C41.7021 15.7187 40.2523 18.8847 37.5511 20.7896C36.7636 21.345 36.0277 22.2568 35.4156 23.1782C35.6027 22.3568 35.8611 21.5048 36.2464 20.737C37.8673 17.5079 37.1105 13.7433 37.1105 13.7433C37.1105 13.7433 36.5379 17.1781 34.4279 19.7224C33.8054 20.473 33.3299 21.5622 32.9783 22.6236C32.9404 21.7706 32.9642 20.8659 33.1371 20.0111C33.8531 16.4697 32.1342 13.0359 32.1342 13.0359C32.1342 13.0359 32.4838 16.5005 31.1158 19.5095C30.7459 20.3234 30.5717 21.3788 30.4982 22.4091C30.2851 21.6681 30.1183 20.8818 30.0754 20.1054C29.8754 16.4978 27.3463 13.6083 27.3463 13.6083C27.3463 13.6083 28.558 16.8728 27.9929 20.1294C27.8283 21.0779 27.9515 22.2421 28.1693 23.3257C27.7217 22.613 27.3033 21.8283 27.034 21.0138C25.899 17.5837 22.7031 15.4548 22.7031 15.4548C22.7031 15.4548 24.7252 18.2898 25.0301 21.581C25.1205 22.5583 25.5594 23.6718 26.0648 24.6761C25.4295 24.0966 24.8006 23.4351 24.3144 22.7025C22.3166 19.6921 18.673 18.4796 18.673 18.4796C18.673 18.4796 21.3701 20.6822 22.5306 23.7773C22.8471 24.621 23.4806 25.4956 24.1635 26.2808C23.481 25.9054 22.7984 25.4642 22.2121 24.94C19.5185 22.532 15.6869 22.2794 15.6869 22.2794C15.6869 22.2794 18.8529 23.7292 20.7578 26.4306C21.3129 27.2179 22.2248 27.954 23.1459 28.5661C22.3246 28.379 21.4726 28.1206 20.7051 27.7353C17.476 26.1144 13.7113 26.8712 13.7113 26.8712C13.7113 26.8712 17.1461 27.4439 19.6904 29.5538C20.441 30.1763 21.5303 30.6519 22.5916 31.0034C21.7387 31.0413 20.834 31.0175 19.9791 30.8446C16.4377 30.1286 13.0039 31.8476 13.0039 31.8476C13.0039 31.8476 16.4685 31.498 19.4775 32.8659C20.2914 33.2358 21.3469 33.4101 22.3771 33.4835C21.6361 33.6966 20.8498 33.8634 20.0734 33.9063C16.4658 34.1063 13.5764 36.6354 13.5764 36.6354C13.5764 36.6354 16.8408 35.4237 20.0974 35.9888C21.0459 36.1534 22.2101 36.0302 23.2937 35.8124C22.581 36.2601 21.7963 36.6784 20.9818 36.9478C17.5518 38.0827 15.4228 41.2786 15.4228 41.2786C15.4228 41.2786 18.2578 39.2565 21.549 38.9516C22.5264 38.8612 23.6398 38.4224 24.6441 37.9169C24.0646 38.5522 23.4031 39.1811 22.6705 39.6673C19.6601 41.6651 18.4475 45.3087 18.4475 45.3087C18.4475 45.3087 20.65 42.6116 23.7451 41.4511C24.5887 41.1347 25.4633 40.5011 26.2484 39.8183C25.8732 40.5005 25.4318 41.1833 24.908 41.7694C22.5 44.463 22.2474 48.2946 22.2474 48.2946C22.2474 48.2946 23.6972 45.1286 26.3986 43.2237C27.1861 42.6682 27.922 41.7565 28.5342 40.8354C28.347 41.6569 28.0886 42.5087 27.7033 43.2764C26.0824 46.5055 26.8392 50.2702 26.8392 50.2702C26.8392 50.2702 27.4119 46.8354 29.5218 44.2911C30.1443 43.5405 30.6199 42.4513 30.9715 41.3899C31.0093 42.2432 30.9855 43.1477 30.8127 44.0026C30.0967 47.544 31.8156 50.9776 31.8156 50.9776C31.8156 50.9776 31.466 47.5132 32.834 44.5042C33.2039 43.6903 33.3781 42.6347 33.4515 41.6046C33.6646 42.3456 33.8314 43.1319 33.8744 43.9083C34.0744 47.5159 36.6035 50.4053 36.6035 50.4053C36.6035 50.4053 35.3918 47.1407 35.9568 43.8843C36.1214 42.9358 35.9982 41.7716 35.7804 40.6882C36.2281 41.4009 36.6464 42.1854 36.9158 42.9999C38.0507 46.43 41.2466 48.5589 41.2466 48.5589C41.2466 48.5589 39.2246 45.7239 38.9197 42.4325C38.8293 41.4552 38.3904 40.3417 37.8849 39.3374C38.5203 39.9169 39.1492 40.5784 39.6353 41.311C41.6332 44.3214 45.2767 45.5341 45.2767 45.5341C45.2767 45.5341 42.5796 43.3315 41.4191 40.2364C41.1027 39.3929 40.4691 38.5183 39.7863 37.7331C40.4685 38.1083 41.1511 38.5497 41.7375 39.0735C44.431 41.4815 48.2626 41.7341 48.2626 41.7341C48.2626 41.7341 45.0966 40.2843 43.1917 37.5829C42.6363 36.7954 41.7246 36.0593 40.8031 35.4474C41.6246 35.6345 42.4763 35.8929 43.2441 36.2782C46.473 37.8989 50.2376 37.1421 50.2376 37.1421ZM31.9967 40.7548C27.1621 40.7548 23.243 36.8356 23.243 32.0011C23.243 27.1665 27.1621 23.2474 31.9967 23.2474C36.8312 23.2474 40.7503 27.1665 40.7503 32.0011C40.7503 36.8356 36.8312 40.7548 31.9967 40.7548Z" fill="#FFE15A"/>
<path d="M29.2225 28.4585C29.4093 28.3128 29.595 28.1665 29.7837 28.0364C28.5434 27.4724 27.427 27.2015 26.6438 27.0802C26.5192 27.2157 26.4067 27.3613 26.2925 27.5058C27.0616 27.6552 28.095 27.9404 29.2225 28.4585Z" fill="#FFE15A"/>
<path d="M27.0208 26.6939C27.8624 26.789 29.0807 27.0396 30.4325 27.6211C30.659 27.4859 30.8844 27.3664 31.1102 27.251C29.6506 26.6517 28.3331 26.4285 27.4262 26.3596C27.2899 26.4701 27.1485 26.574 27.0208 26.6939Z" fill="#FFE15A"/>
<path d="M31.4028 30.7513C31.2282 30.5865 31.0514 30.4304 30.8731 30.283C29.2343 31.8427 27.8005 34.1175 27.1532 37.4181C27.3885 37.6286 27.6221 37.8415 27.8833 38.0206C28.3589 34.6638 29.7528 32.3468 31.4028 30.7513Z" fill="#FFE15A"/>
<path d="M30.7674 29.3015C30.9531 29.1521 31.1387 29.0021 31.327 28.8685C31.0977 28.7222 30.8692 28.5937 30.6414 28.4685C30.4463 28.6021 30.251 28.7314 30.0582 28.8816C30.2942 29.0115 30.5301 29.1498 30.7674 29.3015Z" fill="#FFE15A"/>
<path d="M35.296 28.8788C36.7011 30.113 37.9855 31.8509 38.8993 34.2603C39.1339 33.5448 39.2925 32.7948 39.2925 32.0011C39.2925 30.4941 38.8345 29.0943 38.0515 27.9318C37.3269 28.0759 36.354 28.3575 35.296 28.8788Z" fill="#FFE15A"/>
<path d="M31.4559 29.7705C31.6389 29.9064 31.8182 30.0599 31.9983 30.2109C32.1782 30.0597 32.3575 29.9064 32.5407 29.7705C32.3606 29.6205 32.1809 29.4728 31.9983 29.3381C31.8157 29.473 31.6362 29.6205 31.4559 29.7705Z" fill="#FFE15A"/>
<path d="M31.9983 27.6582C31.7692 27.7744 31.5399 27.9055 31.3094 28.0418C31.5387 28.1623 31.7677 28.2916 31.9983 28.4332C32.229 28.2918 32.4581 28.1625 32.6872 28.0418C32.4567 27.9053 32.2274 27.7744 31.9983 27.6582Z" fill="#FFE15A"/>
<path d="M26.3588 36.5755C27.1305 33.4241 28.5851 31.2651 30.2131 29.78C29.9855 29.6192 29.7588 29.4718 29.5314 29.3354C27.9648 30.713 26.5473 32.7036 25.6738 35.5716C25.8752 35.9274 26.1027 36.2604 26.3588 36.5755Z" fill="#FFE15A"/>
<path d="M28.6997 28.8788C27.6417 28.3574 26.6688 28.0761 25.944 27.9316C25.161 29.0941 24.703 30.4939 24.703 32.0009C24.703 32.7947 24.8616 33.5447 25.0962 34.2601C26.0102 31.8507 27.2944 30.113 28.6997 28.8788Z" fill="#FFE15A"/>
<path d="M31.9986 26.8396C33.5505 26.1984 34.9822 25.9707 36.0003 25.9105C34.8505 25.1535 33.4781 24.7064 31.9986 24.7064C30.5191 24.7064 29.1466 25.1537 27.9968 25.9105C29.015 25.9707 30.4466 26.1982 31.9986 26.8396Z" fill="#FFE15A"/>
<path d="M31.9978 31.3683C30.5429 32.9806 29.3422 35.2954 28.9525 38.6107C29.8818 39.04 30.907 39.2958 31.9978 39.2958C33.0888 39.2958 34.1138 39.04 35.0431 38.6107C34.6535 35.2956 33.4527 32.9806 31.9978 31.3683Z" fill="#FFE15A"/>
<path d="M34.4653 29.3354C34.2382 29.4722 34.0114 29.6192 33.7837 29.78C35.4114 31.2649 36.8663 33.4241 37.638 36.5755C37.894 36.2602 38.1216 35.9274 38.3229 35.5716C37.4497 32.7038 36.0319 30.713 34.4653 29.3354Z" fill="#FFE15A"/>
<path d="M36.8425 37.4181C36.1952 34.1175 34.7614 31.8429 33.1226 30.283C32.9441 30.4304 32.7675 30.5865 32.5929 30.7513C34.2429 32.3468 35.6368 34.6638 36.1122 38.0204C36.3736 37.8415 36.6071 37.6286 36.8425 37.4181Z" fill="#FFE15A"/>
<path d="M32.8862 27.2507C33.112 27.3662 33.3376 27.4859 33.564 27.6208C34.9157 27.0394 36.1341 26.7888 36.9757 26.6937C36.8479 26.5738 36.7065 26.4699 36.5702 26.3591C35.6634 26.4285 34.3458 26.6517 32.8862 27.2507Z" fill="#FFE15A"/>
<path d="M33.2289 29.3015C33.4662 29.1498 33.7021 29.0117 33.9381 28.8816C33.7455 28.7314 33.55 28.6021 33.3548 28.4685C33.1271 28.5939 32.8988 28.7222 32.6693 28.8685C32.8574 29.0021 33.0431 29.1523 33.2289 29.3015Z" fill="#FFE15A"/>
<path d="M34.7732 28.4585C35.9007 27.9403 36.9341 27.6552 37.7029 27.506C37.5886 27.3614 37.4763 27.2157 37.3515 27.0804C36.5683 27.2017 35.4519 27.4724 34.2117 28.0366C34.4007 28.1663 34.5867 28.3128 34.7732 28.4585Z" fill="#FFE15A"/>
</g>
<defs>
<clipPath id="clip0_21_160">
<rect width="64" height="64" rx="32" fill="white"/>
</clipPath>
</defs>
</svg>
