<svg width="64" height="64" viewBox="0 0 64 64" fill="none" xmlns="http://www.w3.org/2000/svg">
<g clip-path="url(#clip0_21_102)">
<path d="M76.2756 -0.758606H-20.2758C-21.2279 -0.758606 -22 0.0132669 -22 0.965414V63.0342C-22 63.9864 -21.2279 64.7585 -20.2758 64.7585H76.2758C77.2279 64.7585 78 63.9864 78 63.0342V0.965414C77.9998 0.0132669 77.2277 -0.758606 76.2756 -0.758606Z" fill="#82C3D2"/>
<path d="M30.8779 36.8115C35.7973 36.8115 39.7853 32.8235 39.7853 27.9041C39.7853 22.9847 35.7973 18.9967 30.8779 18.9967C25.9585 18.9967 21.9705 22.9847 21.9705 27.9041C21.9705 32.8235 25.9585 36.8115 30.8779 36.8115Z" fill="#FFE15A"/>
<path d="M31.5471 16.5473C31.5471 16.9163 31.2479 17.2155 30.8789 17.2155C30.51 17.2155 30.2108 16.9163 30.2108 16.5473C30.2108 16.1784 30.8789 14.543 30.8789 14.543C30.8789 14.543 31.5471 16.1784 31.5471 16.5473Z" fill="#FFE15A"/>
<path d="M30.2108 39.2628C30.2108 38.8938 30.51 38.5946 30.8789 38.5946C31.2479 38.5946 31.5471 38.8938 31.5471 39.2628C31.5471 39.6317 30.8789 41.2671 30.8789 41.2671C30.8789 41.2671 30.2108 39.6319 30.2108 39.2628Z" fill="#FFE15A"/>
<path d="M42.2366 28.5731C41.8677 28.5731 41.5685 28.2739 41.5685 27.9049C41.5685 27.536 41.8677 27.2368 42.2366 27.2368C42.6056 27.2368 44.2409 27.9049 44.2409 27.9049C44.2409 27.9049 42.6056 28.5731 42.2366 28.5731Z" fill="#FFE15A"/>
<path d="M19.5214 27.2369C19.8903 27.2369 20.1895 27.5362 20.1895 27.9051C20.1895 28.274 19.8903 28.5733 19.5214 28.5733C19.1524 28.5733 17.5171 27.9051 17.5171 27.9051C17.5171 27.9051 19.1524 27.2369 19.5214 27.2369Z" fill="#FFE15A"/>
<path d="M39.3829 20.3463C39.1219 20.6073 38.6991 20.6073 38.438 20.3463C38.1768 20.0854 38.177 19.6625 38.438 19.4014C38.6989 19.1403 40.3276 18.4565 40.3276 18.4565C40.3276 18.4565 39.644 20.0854 39.3829 20.3463Z" fill="#FFE15A"/>
<path d="M22.3755 35.4636C22.6364 35.2027 23.0593 35.2027 23.3204 35.4636C23.5816 35.7246 23.5814 36.1474 23.3204 36.4086C23.0595 36.6697 21.4308 37.3533 21.4308 37.3533C21.4308 37.3533 22.1146 35.7248 22.3755 35.4636Z" fill="#FFE15A"/>
<path d="M38.4379 36.4086C38.177 36.1476 38.177 35.7248 38.4379 35.4637C38.6988 35.2025 39.1217 35.2027 39.3828 35.4637C39.6439 35.7246 40.3277 37.3533 40.3277 37.3533C40.3277 37.3533 38.6988 36.6693 38.4379 36.4086Z" fill="#FFE15A"/>
<path d="M23.3206 19.4014C23.5816 19.6623 23.5816 20.0852 23.3206 20.3463C23.0597 20.6074 22.6368 20.6072 22.3757 20.3463C22.1146 20.0854 21.4308 18.4567 21.4308 18.4567C21.4308 18.4567 23.0597 19.1406 23.3206 19.4014Z" fill="#FFE15A"/>
<path d="M27.1501 17.1561C27.2913 17.4971 27.1294 17.8877 26.7884 18.029C26.4474 18.1702 26.0568 18.0083 25.9156 17.6672C25.7743 17.3262 25.7657 15.5598 25.7657 15.5598C25.7657 15.5598 27.0089 16.8151 27.1501 17.1561Z" fill="#FFE15A"/>
<path d="M34.6085 38.6539C34.4673 38.3129 34.6292 37.9223 34.9702 37.7811C35.3112 37.6399 35.7019 37.8018 35.8431 38.1428C35.9843 38.4838 35.9929 40.2502 35.9929 40.2502C35.9929 40.2502 34.7495 38.9949 34.6085 38.6539Z" fill="#FFE15A"/>
<path d="M41.6279 24.176C41.2869 24.3172 40.8963 24.1553 40.7551 23.8143C40.6139 23.4733 40.7758 23.0826 41.1168 22.9414C41.4578 22.8002 43.224 22.7916 43.224 22.7916C43.224 22.7916 41.9689 24.0346 41.6279 24.176Z" fill="#FFE15A"/>
<path d="M20.1306 31.634C20.4716 31.4928 20.8622 31.6547 21.0034 31.9957C21.1446 32.3367 20.9827 32.7273 20.6417 32.8685C20.3007 33.0098 18.5343 33.0183 18.5343 33.0183C18.5343 33.0183 19.7896 31.7754 20.1306 31.634Z" fill="#FFE15A"/>
<path d="M35.843 17.6674C35.7018 18.0084 35.311 18.1701 34.9702 18.0291C34.6291 17.8879 34.4674 17.4971 34.6084 17.1563C34.7497 16.8155 35.9926 15.5602 35.9926 15.5602C35.9926 15.5602 35.9842 17.3266 35.843 17.6674Z" fill="#FFE15A"/>
<path d="M25.9154 38.1426C26.0566 37.8016 26.4474 37.6399 26.7882 37.7809C27.1292 37.9221 27.2909 38.3129 27.1499 38.6537C27.0087 38.9947 25.7657 40.2498 25.7657 40.2498C25.7657 40.2498 25.7741 38.4836 25.9154 38.1426Z" fill="#FFE15A"/>
<path d="M41.1171 32.8686C40.7761 32.7274 40.6143 32.3366 40.7554 31.9957C40.8966 31.6547 41.2874 31.493 41.6282 31.634C41.969 31.775 43.2243 33.0182 43.2243 33.0182C43.2243 33.0182 41.4577 33.01 41.1171 32.8686Z" fill="#FFE15A"/>
<path d="M20.6415 22.9414C20.9825 23.0826 21.1443 23.4734 21.0032 23.8143C20.862 24.1551 20.4712 24.317 20.1304 24.176C19.7896 24.0348 18.5343 22.7918 18.5343 22.7918C18.5343 22.7918 20.3009 22.8 20.6415 22.9414Z" fill="#FFE15A"/>
<path d="M29.3187 16.6352C29.3908 16.9971 29.1558 17.3488 28.7937 17.4207C28.4318 17.4928 28.08 17.2578 28.0082 16.8957C27.9361 16.5338 28.2724 14.7996 28.2724 14.7996C28.2724 14.7996 29.2466 16.2732 29.3187 16.6352Z" fill="#FFE15A"/>
<path d="M32.44 39.1748C32.3679 38.8129 32.6029 38.4612 32.965 38.3893C33.3271 38.3172 33.6787 38.5522 33.7505 38.9143C33.8226 39.2762 33.4863 41.0104 33.4863 41.0104C33.4863 41.0104 32.5119 39.5367 32.44 39.1748Z" fill="#FFE15A"/>
<path d="M42.1492 26.3444C41.7873 26.4164 41.4355 26.1815 41.3636 25.8194C41.2916 25.4572 41.5265 25.1057 41.8886 25.0338C42.2506 24.9617 43.9847 25.2981 43.9847 25.2981C43.9847 25.2981 42.5111 26.2725 42.1492 26.3444Z" fill="#FFE15A"/>
<path d="M19.6092 29.4656C19.9711 29.3936 20.3228 29.6285 20.3947 29.9906C20.4668 30.3527 20.2318 30.7043 19.8697 30.7762C19.5078 30.8482 17.7736 30.5119 17.7736 30.5119C17.7736 30.5119 19.2472 29.5375 19.6092 29.4656Z" fill="#FFE15A"/>
<path d="M37.7447 18.8326C37.5398 19.1395 37.1248 19.2219 36.8179 19.0168C36.5111 18.8117 36.4287 18.3969 36.6338 18.0901C36.8386 17.7832 38.3027 16.7947 38.3027 16.7947C38.3027 16.7947 37.9496 18.5256 37.7447 18.8326Z" fill="#FFE15A"/>
<path d="M24.0138 36.9774C24.2187 36.6705 24.6337 36.5881 24.9406 36.7932C25.2474 36.9981 25.3298 37.4131 25.1247 37.7199C24.9199 38.0268 23.4558 39.0152 23.4558 39.0152C23.4558 39.0152 23.8089 37.2844 24.0138 36.9774Z" fill="#FFE15A"/>
<path d="M39.9515 34.7705C39.6446 34.5656 39.5622 34.1506 39.7673 33.8438C39.9724 33.5369 40.3872 33.4545 40.6941 33.6596C41.0009 33.8645 41.9894 35.3285 41.9894 35.3285C41.9894 35.3285 40.2583 34.9754 39.9515 34.7705Z" fill="#FFE15A"/>
<path d="M21.8067 21.0395C22.1136 21.2443 22.196 21.6594 21.9909 21.9662C21.786 22.273 21.371 22.3555 21.0642 22.1504C20.7573 21.9453 19.7689 20.4814 19.7689 20.4814C19.7689 20.4814 21.5001 20.8346 21.8067 21.0395Z" fill="#FFE15A"/>
<path d="M25.1248 18.09C25.3296 18.3969 25.2472 18.8117 24.9406 19.0168C24.6339 19.2219 24.2189 19.1393 24.0138 18.8326C23.8089 18.5258 23.4558 16.7949 23.4558 16.7949C23.4558 16.7949 24.9199 17.7834 25.1248 18.09Z" fill="#FFE15A"/>
<path d="M36.6336 37.7199C36.4287 37.4131 36.5112 36.9982 36.8178 36.7932C37.1244 36.5883 37.5395 36.6707 37.7446 36.9773C37.9494 37.2842 38.3026 39.015 38.3026 39.015C38.3026 39.015 36.8387 38.0266 36.6336 37.7199Z" fill="#FFE15A"/>
<path d="M40.6939 22.1504C40.3871 22.3553 39.9722 22.2728 39.7672 21.9662C39.5623 21.6594 39.6447 21.2445 39.9513 21.0394C40.2582 20.8346 41.989 20.4814 41.989 20.4814C41.989 20.4814 41.0008 21.9455 40.6939 22.1504Z" fill="#FFE15A"/>
<path d="M21.0645 33.6596C21.3713 33.4547 21.7861 33.5371 21.9912 33.8437C22.1961 34.1506 22.1137 34.5654 21.807 34.7705C21.5002 34.9754 19.7693 35.3285 19.7693 35.3285C19.7693 35.3285 20.7576 33.8644 21.0645 33.6596Z" fill="#FFE15A"/>
<path d="M33.7505 16.8957C33.6785 17.2576 33.3269 17.4928 32.965 17.4207C32.6031 17.3486 32.3679 16.9971 32.44 16.6352C32.5121 16.2732 33.4863 14.7996 33.4863 14.7996C33.4863 14.7996 33.8224 16.5338 33.7505 16.8957Z" fill="#FFE15A"/>
<path d="M28.0081 38.9143C28.0802 38.5524 28.4318 38.3172 28.7937 38.3893C29.1556 38.4613 29.3907 38.8129 29.3187 39.1748C29.2466 39.5367 28.2724 41.0104 28.2724 41.0104C28.2724 41.0104 27.9363 39.2762 28.0081 38.9143Z" fill="#FFE15A"/>
<path d="M41.8881 30.7762C41.5262 30.7041 41.2911 30.3525 41.3631 29.9906C41.4352 29.6287 41.7868 29.3936 42.1487 29.4656C42.5106 29.5377 43.9842 30.5119 43.9842 30.5119C43.9842 30.5119 42.2501 30.848 41.8881 30.7762Z" fill="#FFE15A"/>
<path d="M19.8703 25.0338C20.2322 25.1059 20.4673 25.4575 20.3953 25.8194C20.3232 26.1813 19.9716 26.4164 19.6097 26.3444C19.2478 26.2723 17.7742 25.2981 17.7742 25.2981C17.7742 25.2981 19.5083 24.9619 19.8703 25.0338Z" fill="#FFE15A"/>
<path d="M51.8323 30.2486C51.5713 30.1389 51.2731 30.2647 51.1643 30.524C51.1643 30.5252 51.1643 30.5252 51.1643 30.5252C51.1623 30.5301 51.1522 30.5541 51.1348 30.5951C50.7487 31.4971 49.9498 32.8152 49.1432 34.0553C49.8946 31.6367 50.5815 29.0535 50.6293 28.8719C50.701 28.6006 50.5405 28.3221 50.2696 28.2485C49.9983 28.1756 49.7194 28.3334 49.6434 28.6035C49.2928 29.8598 48.5758 31.5131 47.9143 32.9127C48.0356 31.3522 48.0584 29.9065 48.06 29.8018C48.0641 29.5254 47.8475 29.2969 47.5711 29.2838C47.3112 29.2918 47.0604 29.4815 47.0399 29.7576C46.3858 38.7553 37.7278 42.7803 36.8848 43.1506C36.4438 43.1945 34.3893 43.426 32.5247 44.0734C32.3134 44.1469 32.1333 44.2205 31.954 44.2935C31.8874 44.2685 31.8159 44.2545 31.7407 44.259C26.0177 44.673 21.4544 42.3254 18.1747 37.2957C15.6968 33.4953 14.9196 29.5063 14.912 29.4664C14.8597 29.1891 14.5941 29.0104 14.3155 29.0594C14.0382 29.1121 13.856 29.3785 13.9085 29.6559C13.9292 29.766 14.2702 31.5072 15.2093 33.7988C13.9528 31.8154 13.0773 29.4127 12.7691 28.1613C12.7628 28.1363 12.7468 28.1174 12.7374 28.0944C12.723 28.059 12.7109 28.0235 12.6896 27.9928C12.6745 27.9711 12.6548 27.9553 12.637 27.9363C12.6091 27.9069 12.5823 27.878 12.5482 27.8559C12.5286 27.8432 12.5068 27.8369 12.4855 27.827C12.4478 27.8094 12.4109 27.792 12.3689 27.784C12.3398 27.7783 12.3101 27.782 12.2798 27.7815C12.2491 27.7811 12.2202 27.7733 12.1888 27.7787C12.182 27.7799 12.1767 27.7846 12.1698 27.7862C12.1632 27.7875 12.157 27.7854 12.1503 27.7867C12.123 27.7934 12.1021 27.8106 12.0771 27.8213C12.0452 27.8352 12.0126 27.8455 11.9847 27.8649C11.9571 27.8838 11.9366 27.9084 11.9138 27.9321C11.8909 27.9555 11.8671 27.9762 11.8491 28.0033C11.831 28.0309 11.8212 28.0619 11.8083 28.0926C11.796 28.1225 11.7818 28.1506 11.7753 28.1828C11.7687 28.2158 11.7716 28.2498 11.7718 28.2844C11.7718 28.3119 11.7642 28.3383 11.7691 28.3664C11.771 28.3785 11.7749 28.3906 11.7771 28.4024V28.4043C11.7777 28.4065 11.7784 28.4094 11.779 28.4117C12.095 30.2736 12.8482 32.2037 13.5292 33.6756C12.4478 32.4484 11.5441 31.0346 11.2238 30.1973C11.2146 30.1729 11.196 30.1559 11.1835 30.134C11.1646 30.1002 11.148 30.0656 11.1224 30.0377C11.1042 30.0178 11.0822 30.0049 11.0614 29.9883C11.0304 29.9633 11.0009 29.9381 10.965 29.9209C10.9419 29.91 10.9169 29.9065 10.8925 29.8988C10.8548 29.8875 10.8183 29.875 10.7782 29.8725C10.7468 29.8703 10.7155 29.8783 10.6837 29.8824C10.6542 29.8861 10.6251 29.8824 10.5958 29.8916C10.5902 29.8934 10.5863 29.8979 10.581 29.8998C10.5755 29.9016 10.57 29.9004 10.5646 29.9026C10.5368 29.9131 10.5171 29.9336 10.4923 29.9483C10.4632 29.9654 10.4322 29.9797 10.4073 30.002C10.382 30.0248 10.3644 30.0531 10.3445 30.0803C10.3255 30.1059 10.3044 30.1287 10.2904 30.1572C10.2757 30.1871 10.2702 30.2195 10.2618 30.2518C10.2534 30.2832 10.2423 30.3125 10.2402 30.3455C10.2378 30.3785 10.246 30.4115 10.2503 30.4449C10.254 30.4738 10.2501 30.5026 10.2591 30.5311C10.815 32.324 12.1517 34.4572 13.1989 35.96C12.3263 35.2875 11.6849 34.5602 11.4988 34.3406C11.4786 34.3168 11.4589 34.2928 11.4388 34.269C11.2587 34.0524 10.9406 34.0215 10.7224 34.1981C10.505 34.3756 10.4708 34.6951 10.6466 34.9133C10.6562 34.9254 10.6945 34.9732 10.7585 35.0481C11.5249 35.96 12.3599 36.8109 13.1163 37.5295L12.0816 37.0885C11.8456 36.9867 11.5683 37.0785 11.4392 37.3029C11.3099 37.5275 11.3683 37.8117 11.5753 37.9674C11.6761 38.0422 13.5085 39.4111 15.0948 40.2203C14.9452 40.2293 14.7696 40.2184 14.5732 40.2033C14.3333 40.1803 14.0974 40.3519 14.039 40.5953C13.9816 40.8396 14.1093 41.0893 14.3413 41.185C14.3804 41.201 14.8638 41.4004 15.4607 41.6129C15.3214 41.6697 15.2107 41.7865 15.1648 41.9381C15.096 42.1646 15.1927 42.4101 15.3982 42.5277C15.4517 42.5588 16.1737 42.9728 17.0673 43.3398C17.0435 43.3767 17.0239 43.4166 17.0093 43.4605C16.9394 43.675 17.0192 43.9105 17.2054 44.0392C17.3605 44.1459 20.8302 46.5006 24.8825 46.5006C25.1485 46.5006 25.4173 46.4906 25.6876 46.4687C25.9684 46.4467 26.1786 46.2004 26.1561 45.9189C26.1337 45.6375 25.8897 45.425 25.6059 45.451C23.0603 45.6586 20.6077 44.7027 19.1491 43.9723C19.3417 43.9252 19.4524 43.8824 19.48 43.8715C19.705 43.7797 19.8347 43.5432 19.7907 43.3047C19.7468 43.0664 19.5413 42.8916 19.2983 42.8865C18.7062 42.8744 17.886 42.5861 17.1796 42.2768C17.4464 42.1432 17.6023 42.0152 17.6159 42.0043C17.7696 41.8756 17.8345 41.6701 17.7821 41.4766C17.7294 41.284 17.5685 41.1393 17.3712 41.1074C17.1542 41.0715 16.8837 41.0016 16.6005 40.9158C16.8759 40.7572 16.9931 40.5826 17.038 40.4937C17.1089 40.3521 17.1105 40.1863 17.0425 40.0437C16.9741 39.9012 16.8441 39.7982 16.6892 39.7652C16.5556 39.7363 16.4042 39.6875 16.2407 39.6236C16.2706 39.5937 16.2982 39.5598 16.3204 39.5209C16.4505 39.3004 16.3968 39.017 16.1948 38.8584C16.1843 38.8504 15.7878 38.5393 15.1874 38.0213C15.2827 37.9863 15.3669 37.9215 15.4278 37.8338C15.5566 37.6482 15.5478 37.3998 15.4064 37.224C15.395 37.21 14.998 36.7107 14.4507 35.9525C14.6314 36.0928 14.8118 36.2361 14.9923 36.3521C15.0773 36.4061 15.1734 36.433 15.2687 36.433C15.398 36.433 15.5255 36.3842 15.6237 36.2893C15.6642 36.2502 15.6958 36.2053 15.7208 36.1574C16.0308 36.4885 16.3564 36.7891 16.6984 37.0455C16.7429 37.0789 16.797 37.0783 16.847 37.0951C16.9919 37.3381 17.1427 37.5814 17.3009 37.8248C20.403 42.5978 24.777 45.1545 30.0231 45.308C29.5401 45.6014 29.0157 45.9045 28.1854 46.2279C28.0042 46.2986 27.844 46.3693 27.6831 46.4402C27.6054 46.4555 27.5325 46.4836 27.4718 46.5318C26.0225 47.2027 25.4226 47.8656 25.1792 48.3293C24.9362 48.7902 25.1458 49.2631 25.4425 49.5086C25.5347 49.5843 25.652 49.6232 25.7696 49.6232C25.8505 49.6232 25.9313 49.6052 26.0046 49.5683C26.1852 49.4785 26.3059 49.2879 26.2979 49.0875C26.3188 49.0646 26.4077 48.9908 26.686 48.9816C26.889 48.9646 27.3161 49.0105 27.8145 49.0504C28.2888 49.0894 28.8575 49.1338 29.4622 49.1648C29.0839 49.6058 28.6442 50.117 28.6442 50.117C28.5122 50.2707 28.4831 50.4881 28.571 50.6707C28.6593 50.8543 28.8495 50.9681 29.0489 50.9609C29.4526 50.9468 29.7268 50.9388 29.9069 50.9351C30.064 51.1408 30.2567 51.2224 30.3809 51.2543C30.7323 51.3441 31.0825 51.2035 31.3462 51.0369C31.5458 51.1806 31.7454 51.2414 31.9036 51.2644C32.2602 51.3133 32.5905 51.2095 32.8294 51.0918C33.0768 51.2515 33.3192 51.2924 33.504 51.2924C33.5065 51.2924 33.5094 51.2924 33.5124 51.2924C33.911 51.2904 34.2598 51.0978 34.5065 50.9092C34.7247 51.0388 34.9331 51.0806 35.0942 51.0879C35.46 51.1008 35.7632 50.9601 35.9647 50.8283C36.6846 50.9728 37.3051 50.6338 37.7153 50.2595C37.9024 50.3683 38.0803 50.3953 38.2221 50.3883C38.5868 50.3754 38.8645 50.1537 39.0428 49.9552C39.8591 50.0539 40.4448 49.9033 40.7833 49.5013C40.9678 49.2828 41.0428 49.0365 41.0631 48.8119C43.3276 48.799 43.5325 47.5627 43.5491 47.4099C43.5639 47.2711 43.5217 47.1326 43.4315 47.026C43.3417 46.9193 43.2114 46.8533 43.0723 46.8453L37.1356 46.4883C36.8872 46.4703 36.6655 46.6369 36.6079 46.8795C36.6067 46.8834 36.5055 47.2605 36.1889 47.5621C35.7628 47.9689 35.0766 48.1838 34.3303 48.2976C34.3331 48.2293 34.3235 48.1597 34.2973 48.0918C34.1956 47.8285 33.8993 47.7006 33.6368 47.7996C32.4112 48.2752 30.4268 48.2154 28.8745 48.1074C29.1126 47.9129 29.3993 47.7201 29.6284 47.5943C29.822 47.4877 29.9259 47.2691 29.8848 47.0517C29.8552 46.8937 29.7409 46.7838 29.603 46.7131C30.0347 46.4951 30.3886 46.2846 30.7243 46.0799C31.3071 45.7228 31.8577 45.3863 32.8604 45.0383C34.796 44.3658 37.036 44.1613 37.0585 44.1592C37.1093 44.1551 37.1592 44.1422 37.2065 44.1232C37.2862 44.0902 43.6045 41.4433 46.5813 35.3359C46.5422 35.5205 46.5004 35.6893 46.4549 35.8367C46.3772 36.0883 46.5028 36.3566 46.7452 36.4582C46.9327 36.5371 47.1458 36.4961 47.2901 36.3625C47.102 36.8584 46.9319 37.2484 46.793 37.4789C46.6514 37.7135 46.7198 38.0178 46.9477 38.1693C47.0012 38.2043 47.0584 38.2281 47.1172 38.2422C46.8868 38.5795 46.6532 38.8986 46.4202 39.191C46.2651 39.3855 46.2741 39.6631 46.4362 39.8467C46.0362 40.2656 45.6815 40.6109 45.412 40.8305C45.236 40.973 45.1786 41.2115 45.2594 41.4152C44.9995 41.5639 44.786 41.6687 44.6379 41.7135C44.3895 41.7883 44.237 42.0387 44.2838 42.2941C44.3083 42.4289 44.384 42.5426 44.4887 42.6174C44.1764 42.7012 43.8346 42.782 43.4635 42.8557C43.2545 42.8975 43.0932 43.0642 43.059 43.2746C43.0253 43.4851 43.1251 43.6947 43.3098 43.8004C43.3258 43.8094 43.5002 43.9082 43.7674 44.0219C42.7792 44.4199 41.0147 44.9398 38.1192 45.2252C37.8387 45.2531 37.6333 45.5037 37.6612 45.784C37.6885 46.0644 37.9311 46.259 38.22 46.2429C43.7165 45.6992 45.4137 44.3234 45.4831 44.2644C45.6417 44.1316 45.7045 43.9152 45.6417 43.7178C45.5999 43.5871 45.5081 43.4814 45.3901 43.4203C47.1461 42.8676 47.9 42.2558 47.9395 42.223C48.1321 42.0633 48.1805 41.7871 48.0538 41.5705C47.926 41.3539 47.6602 41.2602 47.4282 41.3539C47.3629 41.3789 47.2586 41.4047 47.1268 41.4307C48.3053 40.6236 49.5563 39.6625 50.1065 39.2336C50.2032 39.1619 50.2911 39.0928 50.3684 39.0279C50.5821 38.8484 50.612 38.5309 50.4356 38.3146C50.2606 38.0992 49.9416 38.0631 49.7231 38.2357C49.6434 38.2986 49.5604 38.3635 49.4747 38.4303C49.2207 38.6189 48.8959 38.8324 48.5416 39.0518C49.8791 37.5332 51.2256 35.8869 51.6102 35.4141C51.6452 35.3711 51.6795 35.3283 51.7145 35.2854C51.8911 35.0658 51.8567 34.7445 51.6372 34.568C51.417 34.3885 51.0954 34.4254 50.9192 34.6438L50.918 34.6449L50.9176 34.6461C50.908 34.657 50.8649 34.7109 50.792 34.8008C50.3891 35.2926 49.9649 35.7688 49.5463 36.2135C50.9088 33.7441 51.9405 31.3135 52.0916 30.9533C52.0971 30.9404 52.1022 30.9276 52.1077 30.9143C52.2159 30.6559 52.0928 30.3565 51.8323 30.2486ZM27.889 47.4687L28.0284 47.4869C27.8573 47.6469 27.7181 47.8262 27.6075 48.0113C27.3649 47.9918 27.1448 47.9746 26.9724 47.967C27.21 47.8117 27.5159 47.6431 27.889 47.4687Z" fill="#FFE15A"/>
</g>
<defs>
<clipPath id="clip0_21_102">
<rect width="64" height="64" rx="32" fill="white"/>
</clipPath>
</defs>
</svg>
