<svg width="64" height="64" viewBox="0 0 64 64" fill="none" xmlns="http://www.w3.org/2000/svg">
<g clip-path="url(#clip0_45_321)">
<path d="M99.9998 21.0806H0V0.965548C0 0.013401 0.772069 -0.758667 1.72422 -0.758667H98.2758C99.2279 -0.758667 100 0.013401 100 0.965548L99.9998 21.0806Z" fill="#82AFFF"/>
<path d="M98.2756 64.7587H1.72422C0.772069 64.7587 0 63.9866 0 63.0345V42.9197H99.9998V63.0345C99.9998 63.9868 99.2277 64.7587 98.2756 64.7587Z" fill="#73AF00"/>
<path d="M99.9998 21.0803H0V42.9182H99.9998V21.0803Z" fill="#F5F5F5"/>
<path d="M99.9998 19.1406H0V21.8637H99.9998V19.1406Z" fill="#FF4B55"/>
<path d="M100 42.1346H0.000488281V44.8577H100V42.1346Z" fill="#FF4B55"/>
<path d="M22.1658 15.6077C18.6362 15.6077 15.775 12.7535 15.775 9.23647C15.775 5.70659 18.636 2.83941 22.1658 2.83941C22.1795 2.83941 22.1928 2.83941 22.2061 2.8396C22.4139 2.84234 22.4867 2.56636 22.3035 2.46812C21.2166 1.8855 19.9762 1.55582 18.6575 1.56539C14.434 1.59547 11.0034 5.09526 11.0483 9.31869C11.0924 13.4986 14.5096 16.882 18.7127 16.882C20.0133 16.882 21.2364 16.5529 22.3098 15.9783C22.4924 15.8804 22.4186 15.6044 22.2115 15.6074C22.1959 15.6077 22.1809 15.6077 22.1658 15.6077Z" fill="#F5F5F5"/>
<path d="M27.1692 13.846L26.8838 14.7019L25.9817 14.7087C25.8649 14.7095 25.8165 14.8587 25.9104 14.928L26.6362 15.464L26.3639 16.3241C26.3288 16.4354 26.4555 16.5276 26.5506 16.4597L27.2846 15.9351L28.0186 16.4597C28.1137 16.5276 28.2403 16.4354 28.2053 16.3241L27.9331 15.464L28.6586 14.928C28.7526 14.8587 28.7041 14.7095 28.5873 14.7087L27.6852 14.7019L27.3999 13.846C27.3629 13.7353 27.2063 13.7353 27.1692 13.846Z" fill="#F5F5F5"/>
<path d="M33.5254 13.846L33.24 14.7019L32.3379 14.7087C32.2211 14.7095 32.1727 14.8587 32.2666 14.928L32.9922 15.464L32.7199 16.3241C32.6848 16.4354 32.8115 16.5276 32.9066 16.4597L33.6406 15.9351L34.3746 16.4597C34.4697 16.5276 34.5963 16.4354 34.5613 16.3241L34.2891 15.464L35.0147 14.928C35.1086 14.8587 35.0602 14.7095 34.9434 14.7087L34.0412 14.7019L33.7559 13.846C33.7189 13.7353 33.5621 13.7353 33.5254 13.846Z" fill="#F5F5F5"/>
<path d="M39.8811 13.846L39.5957 14.7019L38.6936 14.7087C38.5768 14.7095 38.5284 14.8587 38.6223 14.928L39.3481 15.464L39.0758 16.3241C39.0407 16.4354 39.1674 16.5276 39.2625 16.4597L39.9965 15.9351L40.7305 16.4597C40.8256 16.5276 40.9522 16.4354 40.9172 16.3241L40.645 15.464L41.3705 14.928C41.4645 14.8587 41.4161 14.7095 41.2993 14.7087L40.3971 14.7019L40.1118 13.846C40.0748 13.7353 39.918 13.7353 39.8811 13.846Z" fill="#F5F5F5"/>
<path d="M46.2366 13.846L45.9512 14.7019L45.0491 14.7087C44.9323 14.7095 44.8838 14.8587 44.9778 14.928L45.7034 15.464L45.4311 16.3241C45.3959 16.4354 45.5227 16.5276 45.6178 16.4597L46.3518 15.9351L47.0858 16.4597C47.1809 16.5276 47.3075 16.4354 47.2725 16.3241L47.0002 15.464L47.7258 14.928C47.8198 14.8587 47.7713 14.7095 47.6545 14.7087L46.7524 14.7019L46.467 13.846C46.4303 13.7353 46.2735 13.7353 46.2366 13.846Z" fill="#F5F5F5"/>
<path d="M52.593 13.846L52.3077 14.7019L51.4055 14.7087C51.2887 14.7095 51.2403 14.8587 51.3342 14.928L52.06 15.464L51.7877 16.3241C51.7526 16.4354 51.8793 16.5276 51.9745 16.4597L52.7084 15.9351L53.4424 16.4597C53.5375 16.5276 53.6641 16.4354 53.6291 16.3241L53.3569 15.464L54.0827 14.928C54.1766 14.8587 54.1282 14.7095 54.0114 14.7087L53.1092 14.7019L52.8239 13.846C52.7866 13.7353 52.6299 13.7353 52.593 13.846Z" fill="#F5F5F5"/>
<path d="M33.5254 7.91392L33.24 8.76978L32.3379 8.77661C32.2211 8.77739 32.1727 8.92661 32.2666 8.99595L32.9922 9.53188L32.7199 10.392C32.6848 10.5034 32.8115 10.5956 32.9066 10.5276L33.6406 10.003L34.3746 10.5276C34.4697 10.5956 34.5963 10.5034 34.5613 10.392L34.2891 9.53188L35.0147 8.99595C35.1086 8.92661 35.0602 8.77739 34.9434 8.77661L34.0412 8.76978L33.7559 7.91392C33.7189 7.80278 33.5621 7.80278 33.5254 7.91392Z" fill="#F5F5F5"/>
<path d="M39.8811 7.91392L39.5957 8.76978L38.6936 8.77661C38.5768 8.77739 38.5284 8.92661 38.6223 8.99595L39.3481 9.53188L39.0758 10.392C39.0407 10.5034 39.1674 10.5956 39.2625 10.5276L39.9965 10.003L40.7305 10.5276C40.8256 10.5956 40.9522 10.5034 40.9172 10.392L40.645 9.53188L41.3705 8.99595C41.4645 8.92661 41.4161 8.77739 41.2993 8.77661L40.3971 8.76978L40.1118 7.91392C40.0748 7.80278 39.918 7.80278 39.8811 7.91392Z" fill="#F5F5F5"/>
<path d="M46.2366 7.91392L45.9512 8.76978L45.0491 8.77661C44.9323 8.77739 44.8838 8.92661 44.9778 8.99595L45.7034 9.53188L45.4311 10.392C45.3959 10.5034 45.5227 10.5956 45.6178 10.5276L46.3518 10.003L47.0858 10.5276C47.1809 10.5956 47.3075 10.5034 47.2725 10.392L47.0002 9.53188L47.7258 8.99595C47.8198 8.92661 47.7713 8.77739 47.6545 8.77661L46.7524 8.76978L46.467 7.91392C46.4303 7.80278 46.2735 7.80278 46.2366 7.91392Z" fill="#F5F5F5"/>
<path d="M52.593 7.91392L52.3077 8.76978L51.4055 8.77661C51.2887 8.77739 51.2403 8.92661 51.3342 8.99595L52.06 9.53188L51.7877 10.392C51.7526 10.5034 51.8793 10.5956 51.9745 10.5276L52.7084 10.003L53.4424 10.5276C53.5375 10.5956 53.6641 10.5034 53.6291 10.392L53.3569 9.53188L54.0827 8.99595C54.1766 8.92661 54.1282 8.77739 54.0114 8.77661L53.1092 8.76978L52.8239 7.91392C52.7866 7.80278 52.6299 7.80278 52.593 7.91392Z" fill="#F5F5F5"/>
<path d="M39.8811 13.846L39.5957 14.7019L38.6936 14.7087C38.5768 14.7095 38.5284 14.8587 38.6223 14.928L39.3481 15.464L39.0758 16.3241C39.0407 16.4354 39.1674 16.5276 39.2625 16.4597L39.9965 15.9351L40.7305 16.4597C40.8256 16.5276 40.9522 16.4354 40.9172 16.3241L40.645 15.464L41.3705 14.928C41.4645 14.8587 41.4161 14.7095 41.2993 14.7087L40.3971 14.7019L40.1118 13.846C40.0748 13.7353 39.918 13.7353 39.8811 13.846Z" fill="#F5F5F5"/>
<path d="M39.8811 1.98162L39.5957 2.83747L38.6936 2.84431C38.5768 2.84509 38.5284 2.99431 38.6223 3.06364L39.3481 3.59958L39.0758 4.45973C39.0407 4.57106 39.1674 4.66325 39.2625 4.59528L39.9965 4.07067L40.7305 4.59528C40.8256 4.66325 40.9522 4.57106 40.9172 4.45973L40.645 3.59958L41.3705 3.06364C41.4645 2.99431 41.4161 2.84509 41.2993 2.84431L40.3971 2.83747L40.1118 1.98162C40.0748 1.87087 39.918 1.87087 39.8811 1.98162Z" fill="#F5F5F5"/>
<path d="M46.2366 13.846L45.9512 14.7019L45.0491 14.7087C44.9323 14.7095 44.8838 14.8587 44.9778 14.928L45.7034 15.464L45.4311 16.3241C45.3959 16.4354 45.5227 16.5276 45.6178 16.4597L46.3518 15.9351L47.0858 16.4597C47.1809 16.5276 47.3075 16.4354 47.2725 16.3241L47.0002 15.464L47.7258 14.928C47.8198 14.8587 47.7713 14.7095 47.6545 14.7087L46.7524 14.7019L46.467 13.846C46.4303 13.7353 46.2735 13.7353 46.2366 13.846Z" fill="#F5F5F5"/>
<path d="M52.593 13.846L52.3077 14.7019L51.4055 14.7087C51.2887 14.7095 51.2403 14.8587 51.3342 14.928L52.06 15.464L51.7877 16.3241C51.7526 16.4354 51.8793 16.5276 51.9745 16.4597L52.7084 15.9351L53.4424 16.4597C53.5375 16.5276 53.6641 16.4354 53.6291 16.3241L53.3569 15.464L54.0827 14.928C54.1766 14.8587 54.1282 14.7095 54.0114 14.7087L53.1092 14.7019L52.8239 13.846C52.7866 13.7353 52.6299 13.7353 52.593 13.846Z" fill="#F5F5F5"/>
<path d="M46.2366 1.98162L45.9512 2.83747L45.0491 2.84431C44.9323 2.84509 44.8838 2.99431 44.9778 3.06364L45.7034 3.59958L45.4311 4.45973C45.3959 4.57106 45.5227 4.66325 45.6178 4.59528L46.3518 4.07067L47.0858 4.59528C47.1809 4.66325 47.3075 4.57106 47.2725 4.45973L47.0002 3.59958L47.7258 3.06364C47.8198 2.99431 47.7713 2.84509 47.6545 2.84431L46.7524 2.83747L46.467 1.98162C46.4303 1.87087 46.2735 1.87087 46.2366 1.98162Z" fill="#F5F5F5"/>
<path d="M52.593 1.98162L52.3077 2.83747L51.4055 2.84431C51.2887 2.84509 51.2403 2.99431 51.3342 3.06364L52.06 3.59958L51.7877 4.45973C51.7526 4.57106 51.8793 4.66325 51.9745 4.59528L52.7084 4.07067L53.4424 4.59528C53.5375 4.66325 53.6641 4.57106 53.6291 4.45973L53.3569 3.59958L54.0827 3.06364C54.1766 2.99431 54.1282 2.84509 54.0114 2.84431L53.1092 2.83747L52.8239 1.98162C52.7866 1.87087 52.6299 1.87087 52.593 1.98162Z" fill="#F5F5F5"/>
</g>
<defs>
<clipPath id="clip0_45_321">
<rect width="64" height="64" rx="32" fill="white"/>
</clipPath>
</defs>
</svg>
