<svg fill="none" version="1.1" viewBox="0 0 32 32" xmlns="http://www.w3.org/2000/svg">
 <g stroke="#fff" stroke-linecap="round" stroke-linejoin="round" stroke-width="1.5">
  <path d="m16 29.333c7.364 0 13.333-5.9693 13.333-13.333 0-7.364-5.9693-13.333-13.333-13.333-7.364 0-13.333 5.9693-13.333 13.333 0 7.364 5.9693 13.333 13.333 13.333z"/>
  <path d="m10.667 4h1.3333c-2.5999 7.7888-2.5999 16.211 0 24h-1.3333m9.3333-24c2.6 7.7888 2.6 16.211 0 24"/>
  <path d="m4 21.333v-1.3334c7.7888 2.6 16.211 2.6 24 0v1.3334m-24-9.3334c7.7888-2.5999 16.211-2.5999 24 0"/>
 </g>
</svg>
