<svg fill="none" version="1.1" viewBox="0 0 32 32" xmlns="http://www.w3.org/2000/svg">
 <g fill="#fff">
  <path d="m20.645 19.307-0.6182-0.6183c-0.1976-0.1975-0.5179-0.1975-0.7153 0-0.1975 0.1975-0.1975 0.5179 0 0.7153l0.6183 0.6182c0.0987 0.0987 0.2281 0.1482 0.3576 0.1482 0.1294 0 0.2589-0.0494 0.3576-0.1482 0.1976-0.1975 0.1976-0.5178 0-0.7152z"/>
  <path d="m14.675 23.228-0.6182-0.6182c-0.1976-0.1975-0.5178-0.1975-0.7153 0s-0.1975 0.5177 0 0.7152l0.6183 0.6182c0.0987 0.0988 0.2282 0.1482 0.3576 0.1482s0.2589-0.0494 0.3576-0.1482c0.1975-0.1974 0.1975-0.5176 0-0.7152z"/>
  <path d="m17.647 21.255-0.6183-0.6182c-0.1975-0.1975-0.5178-0.1975-0.7152 0-0.1976 0.1975-0.1976 0.5178 0 0.7152l0.6182 0.6182c0.0988 0.0988 0.2282 0.1482 0.3577 0.1482 0.1294 0 0.2588-0.0494 0.3576-0.1482 0.1975-0.1974 0.1975-0.5177 0-0.7152z"/>
  <path d="m32 10.005c0-1.7697-0.6881-3.4336-1.9375-4.685-2.5793-2.5834-6.7758-2.5833-9.355 0l-1.8156 1.8185c-0.28375-0.08887-0.57408-0.15106-0.86711-0.18675-1.5363-0.89043-3.495-1.0376-5.1081-0.4l-1.5728-1.5754c-1.2495-1.2514-2.9107-1.9406-4.6776-1.9406s-3.4283 0.68925-4.6776 1.9406c-1.2495 1.2514-1.9376 2.9152-1.9376 4.685 0 1.7698 0.68809 3.4336 1.9375 4.685l4.2579 4.2647c-0.098722 0.0708-0.19313 0.1502-0.28174 0.2389l-0.61726 0.6183c-0.42507 0.4257-0.65925 0.9918-0.65925 1.5939 0 0.6022 0.23418 1.1683 0.65925 1.5941s0.99029 0.6603 1.5914 0.6603c0.077685 0 0.15481-0.0042 0.23113-0.0119-0.066264 0.6514 0.14901 1.3263 0.64621 1.8243 0.4388 0.4395 1.0152 0.6593 1.5915 0.6593 0.17716 0 0.35425-0.0211 0.52734-0.0625 0.00693 0.592 0.23991 1.1476 0.65853 1.5669 0.42512 0.4258 0.99031 0.6603 1.5914 0.6603 0.27077 0 0.53394-0.0479 0.78055-0.1391l0.35244 0.353c0.45926 0.46 1.0701 0.6952 1.6737 0.6952 0.502 0 0.9992-0.1627 1.3998-0.494 0.48223-0.399 0.77885-0.9814 0.81749-1.6023 0.72744 0.2439 1.5477 0.1269 2.15-0.3712 0.47793-0.3953 0.77366-0.971 0.81629-1.5857 0.73412 0.2558 1.567 0.1422 2.1766-0.362 0.47863-0.396 0.77446-0.9726 0.81659-1.5881 0.73312 0.254 1.5641 0.1399 2.1725-0.3635 0.49061-0.4059 0.78924-1.0016 0.81929-1.6345 0.02905-0.6103-0.19289-1.2081-0.60942-1.6517l4.5116-4.5188c1.2494-1.2515 1.9375-2.9154 1.9375-4.6852zm-25.061 12.3c-0.33141 0-0.64297-0.1293-0.87734-0.364-0.48379-0.4845-0.48379-1.2729 0-1.7575l0.61726-0.6182c0.24192-0.2423 0.5596-0.3634 0.87734-0.3634 0.31768 0 0.63548 0.1211 0.87734 0.3634 0.48378 0.4845 0.48378 1.2729 0 1.7575l-0.61726 0.6182c-0.23437 0.2348-0.54594 0.364-0.87734 0.364zm3.3461 2.1088c-0.48375 0.4846-1.2709 0.4846-1.7546 0-0.48379-0.4846-0.48379-1.2729 0-1.7575 0.48378-0.4846 1.2709-0.4845 1.7546 0 0.48382 0.4846 0.48382 1.273 0 1.7575zm2.7775 2.1637c-0.23432 0.2347-0.54592 0.364-0.87739 0.364-0.33137 0-0.64297-0.1292-0.87729-0.364-0.23432-0.2347-0.36342-0.5468-0.36342-0.8788 0-0.3319 0.12909-0.644 0.36342-0.8787 0.23432-0.2348 0.54592-0.364 0.87729-0.364 0.33147 0 0.64297 0.1292 0.87739 0.364 0.23432 0.2347 0.36342 0.5468 0.36342 0.8787-1e-4 0.332-0.12909 0.644-0.36342 0.8788zm11.635-4.8622c-0.48532 0.4014-1.239 0.3414-1.7162-0.1364l-0.46715-0.468-0.61721-0.6182c-0.19718-0.1977-0.51697-0.1975-0.71406 0-0.19718 0.1975-0.19718 0.5178 0 0.7152l0.61721 0.6182c0.2467 0.2471 0.37859 0.589 0.36202 0.9383-0.01687 0.354-0.17792 0.6745-0.45357 0.9025-0.48522 0.4015-1.239 0.3415-1.7162-0.1364l-0.47114-0.4718-0.61721-0.6183c-0.19718-0.1975-0.51707-0.1975-0.71416 0-0.19718 0.1976-0.19718 0.5178 0 0.7153l0.61731 0.6182c0.2466 0.2471 0.37849 0.589 0.36192 0.9383-0.01687 0.354-0.17791 0.6745-0.45347 0.9025-0.48532 0.4014-1.239 0.3415-1.7162-0.1364l-0.44539-0.4463-0.61731-0.6182c-0.19718-0.1976-0.51697-0.1975-0.71416 0-0.19718 0.1976-0.19718 0.5178 0 0.7152l0.61691 0.6179c1e-4 1e-4 2e-4 1e-4 3e-4 3e-4 0.2467 0.247 0.37859 0.589 0.36202 0.9383-0.01687 0.354-0.17792 0.6744-0.45357 0.9025-0.48522 0.4015-1.2389 0.3415-1.7162-0.1364l-0.20837-0.2086c0.39487-0.4196 0.61202-0.9651 0.61202-1.5443 0-0.6022-0.23412-1.1682-0.65924-1.594-0.42512-0.4258-0.99031-0.6603-1.5914-0.6603-0.18041 0-0.35743 0.0215-0.52845 0.0626-7e-3 -0.568-0.22584-1.1336-0.65755-1.566-0.37949-0.3801-0.86212-0.5955-1.3585-0.6468 0.32978-0.8146 0.16548-1.7845-0.49309-2.4441-0.51074-0.5116-1.2077-0.7247-1.8742-0.6409l-4.5707-4.578c-1.0588-1.0603-1.6418-2.4701-1.6418-3.9696s0.583-2.9094 1.6417-3.9697c1.0586-1.0604 2.4662-1.6443 3.9633-1.6443 1.4972 0 2.9047 0.58394 3.9633 1.6443l1.8158 1.8188c0.15136 0.15162 0.38169 0.19106 0.57478 0.09875 0.82478-0.39475 1.7863-0.52188 2.7176-0.39088-0.63848 0.23625-1.2373 0.60944-1.7493 1.1222l-3.0861 3.091c-0.8775 0.8789-0.8775 2.3091 0 3.1881 0.4388 0.4395 1.015 0.6592 1.5914 0.6592 0.57628 0 1.1528-0.2198 1.5915-0.6592l2.7289-2.7334 7.9752 7.988c0.2467 0.247 0.37859 0.589 0.36202 0.9384-0.01687 0.3538-0.17792 0.6743-0.45347 0.9024zm0.13998-3.2228-7.3096-7.3213 0.26018-0.2605c0.19718-0.1976 0.19718-0.5178 0-0.7153-0.19728-0.1975-0.51697-0.1975-0.71416 0l-3.7033 3.7092c-0.48372 0.4846-1.271 0.4845-1.7547 0-0.48372-0.4846-0.48372-1.2729 0-1.7575l3.0861-3.091c1.5048-1.5071 3.9532-1.5071 5.458 0 0.19718 0.1975 0.51697 0.1975 0.71416 0 0.19718-0.19756 0.19718-0.51781 0-0.71525-0.30321-0.30362-0.63688-0.55819-0.99101-0.76487l1.5379-1.5404c2.1854-2.1888 5.7413-2.1889 7.9267 0 2.1854 2.1889 2.1854 5.7505 0 7.9394z" stroke-width=".9992"/>
 </g>
</svg>
