<svg fill="none" version="1.1" viewBox="0 0 32 32" xmlns="http://www.w3.org/2000/svg">
 <path d="m24.893 24.893 2.96-1.48v-3.7067m-8.8934-6.6666-2.96 1.48m0 0-2.96-1.48m2.96 1.48v3.7066m11.853-9.64-2.96 1.48m2.96-1.48-2.96-1.48m2.96 1.48v3.7067m-23.707-3.7067 2.96-1.48m-2.96 1.48 2.96 1.48m-2.96-1.48v3.7067m11.853 17.04-2.96-1.48m2.96 1.48 2.96-1.48m-2.96 1.48v-3.7067m2.96-21.48-2.96-1.48-2.96 1.48h5.92zm-11.853 20.747-2.96-1.48v-3.7067l2.96 5.1867z" stroke="#fff" stroke-linecap="round" stroke-linejoin="round" stroke-width="1.5"/>
</svg>
