<svg fill="none" version="1.1" viewBox="0 0 32 32" xmlns="http://www.w3.org/2000/svg">
 <path d="m22.627 19.253c1.8267 0.3067 3.84-0.0133 5.2533-0.96 1.88-1.2533 1.88-3.3067 0-4.56-1.4266-0.9467-3.4666-1.2667-5.2933-0.9467m-13.253 6.4667c-1.8267 0.3067-3.84-0.0133-5.2533-0.96-1.88-1.2533-1.88-3.3067 0-4.56 1.4267-0.9467 3.4667-1.2667 5.2933-0.9467m14.627-3.24c-0.0839-0.01335-0.1694-0.01335-0.2533 0-0.8898-0.03218-1.7323-0.40906-2.3493-1.051-0.6171-0.64193-0.9604-1.4986-0.9574-2.389 0-1.9067 1.5334-3.44 3.44-3.44 0.9124 0 1.7873 0.36242 2.4325 1.0076 0.6451 0.64512 1.0075 1.5201 1.0075 2.4324-0.0024 0.89103-0.3493 1.7466-0.9681 2.3877-0.6188 0.64115-1.4615 1.0182-2.3519 1.0523zm-16.04 0c0.08-0.01334 0.17334-0.01334 0.25334 0 0.88982-0.03218 1.7323-0.40906 2.3493-1.051 0.617-0.64193 0.9603-1.4986 0.9573-2.389 0-1.9067-1.5333-3.44-3.44-3.44-0.91234 0-1.7873 0.36242-2.4324 1.0076-0.64512 0.64512-1.0076 1.5201-1.0076 2.4324 0.01334 1.8667 1.48 3.3733 3.32 3.44zm8.04 9.96c-0.0839-0.0133-0.1694-0.0133-0.2533 0-0.8898-0.0322-1.7323-0.409-2.3493-1.051-0.6171-0.6419-0.9604-1.4986-0.9574-2.389 0-1.9066 1.5334-3.44 3.44-3.44 0.9124 0 1.7873 0.3625 2.4325 1.0076 0.6451 0.6451 1.0075 1.5201 1.0075 2.4324-0.0133 1.8667-1.48 3.3867-3.32 3.44zm-3.88 4.2c-1.88 1.2534-1.88 3.3067 0 4.56 2.1334 1.4267 5.6267 1.4267 7.76 0 1.88-1.2533 1.88-3.3066 0-4.56-2.12-1.4133-5.6266-1.4133-7.76 0z" stroke="#fff" stroke-linecap="round" stroke-linejoin="round" stroke-width="1.5"/>
</svg>
