<svg fill="none" version="1.1" viewBox="0 0 32 32" xmlns="http://www.w3.org/2000/svg">
 <g stroke="#fff" stroke-linecap="round" stroke-linejoin="round" stroke-width="1.5">
  <path d="m14.336 22.48v2.7066c0 2.2934-2.1334 4.1467-4.76 4.1467-2.6267 0-4.7733-1.8533-4.7733-4.1467v-2.7066c0 2.2933 2.1333 3.92 4.7733 3.92 2.6266 0 4.76-1.64 4.76-3.92z"/>
  <path d="m14.333 18.813c0 0.6667-0.1867 1.28-0.5067 1.8133-0.7866 1.2934-2.4 2.1067-4.2666 2.1067-1.8667 0-3.48-0.8267-4.2667-2.1067-0.32-0.5333-0.50667-1.1466-0.50667-1.8133 0-1.1467 0.53333-2.1733 1.3867-2.92 0.86666-0.76 2.0533-1.2133 3.3733-1.2133 1.32 0 2.5067 0.4666 3.3734 1.2133 0.88 0.7333 1.4133 1.7733 1.4133 2.92z"/>
  <path d="m14.336 18.813v3.6667c0 2.2933-2.1334 3.92-4.76 3.92-2.6267 0-4.7733-1.64-4.7733-3.92v-3.6667c0-2.2933 2.1333-4.1467 4.7733-4.1467 1.32 0 2.5066 0.4667 3.3733 1.2134 0.8533 0.7466 1.3867 1.7866 1.3867 2.9333zm14.997-4.1867v2.7467c0 0.7333-0.5867 1.3333-1.3333 1.36h-2.6134c-1.44 0-2.76-1.0533-2.88-2.4933-0.08-0.84 0.24-1.6267 0.8-2.1734 0.4934-0.5066 1.1734-0.8 1.92-0.8h2.7734c0.7466 0.0267 1.3333 0.6267 1.3333 1.36z"/>
  <path d="m2.6668 14v-2.6667c0-3.6267 2.1867-6.16 5.5867-6.5867 0.34667-0.05334 0.70667-0.08 1.08-0.08h12c0.3467 0 0.68 0.01333 1 0.06666 3.44 0.4 5.6667 2.9467 5.6667 6.6v1.9333h-2.7734c-0.7466 0-1.4266 0.2934-1.92 0.8-0.56 0.5467-0.88 1.3334-0.8 2.1734 0.12 1.44 1.44 2.4933 2.88 2.4933h2.6134v1.9333c0 4-2.6667 6.6667-6.6667 6.6667h-3.3333"/>
 </g>
</svg>
