<svg fill="none" version="1.1" viewBox="0 0 32 32" xmlns="http://www.w3.org/2000/svg">
 <path d="m12.667 18.333c0 1.2934 1 2.3334 2.2267 2.3334h2.5067c1.0666 0 1.9333-0.9067 1.9333-2.04 0-1.2134-0.5333-1.6534-1.32-1.9334l-4.0133-1.4c-0.7867-0.28-1.32-0.7066-1.32-1.9333 0-1.12 0.8666-2.04 1.9333-2.04h2.5067c1.2266 0 2.2266 1.04 2.2266 2.3333m-3.3466-3.6533v12" stroke="#fff" stroke-linecap="round" stroke-linejoin="round" stroke-width="1.5"/>
 <path d="m29.333 16c0 7.36-5.9733 13.333-13.333 13.333-7.36 0-13.333-5.9733-13.333-13.333 0-7.36 5.9733-13.333 13.333-13.333m13.333 5.3333v-5.3333m0 0h-5.3333m5.3333 0-6.6667 6.6667" stroke="#fff" stroke-linecap="round" stroke-linejoin="round" stroke-width="1.5"/>
</svg>
