<svg fill="none" version="1.1" viewBox="0 0 32 32" xmlns="http://www.w3.org/2000/svg">
 <path d="m13.4 3.3734-8.0266 5.24c-2.5733 1.68-2.5733 5.44 0 7.12l8.0266 5.24c1.44 0.9466 3.8134 0.9466 5.2534 0l7.9866-5.24c2.56-1.68 2.56-5.4267 0-7.1067l-7.9866-5.24c-1.44-0.96-3.8134-0.96-5.2534-0.01333z" stroke="#fff" stroke-linecap="round" stroke-linejoin="round" stroke-width="1.5"/>
 <path d="m7.5067 17.44-0.01333 6.2533c0 1.6934 1.3067 3.5067 2.9067 4.04l4.2533 1.4134c0.7333 0.24 1.9467 0.24 2.6933 0l4.2534-1.4134c1.6-0.5333 2.9066-2.3466 2.9066-4.04v-6.1866m4.0267 2.4933v-8" stroke="#fff" stroke-linecap="round" stroke-linejoin="round" stroke-width="1.5"/>
</svg>
