<svg fill="none" version="1.1" viewBox="0 0 18 18" xmlns="http://www.w3.org/2000/svg">
 <path d="m18 1.377v15.304c0 0.34987-0.13873 0.6854-0.38584 0.9328-0.24701 0.2475-0.58199 0.38646-0.9313 0.38646h-15.279c-0.34933 0-0.68436-0.13895-0.93138-0.38646-0.24702-0.2474-0.38579-0.58292-0.38579-0.9328v-15.304c0-0.3499 0.13877-0.68546 0.38579-0.93288 0.24702-0.24741 0.58204-0.38641 0.93138-0.38641h15.279c0.34931 0 0.68429 0.139 0.9313 0.38641 0.2471 0.24741 0.38584 0.58298 0.38584 0.93288zm-12.645 5.541h-2.6343v8.4434h2.6343zm0.23708-2.9024c0.0013932-0.19959-0.036484-0.39749-0.11146-0.58242-0.074968-0.18493-0.18558-0.35325-0.3255-0.49536-0.13992-0.14211-0.30643-0.25523-0.49-0.33288-0.18356-0.07766-0.38061-0.11834-0.57987-0.11972h-0.047421c-0.40523 0-0.79385 0.16124-1.0804 0.44824-0.28654 0.28701-0.44752 0.67625-0.44752 1.0821 0 0.40587 0.16098 0.79513 0.44752 1.0821 0.28655 0.287 0.67517 0.44823 1.0804 0.44823 0.19928 0.0049142 0.39757-0.029555 0.58355-0.10142 0.18597-0.071879 0.35599-0.17975 0.50032-0.31746 0.14434-0.13772 0.26017-0.30256 0.34088-0.48512s0.12472-0.37927 0.12949-0.57887zm9.7733 6.2165c0-2.5383-1.6122-3.5252-3.2139-3.5252-0.52436-0.026305-1.0465 0.085575-1.5143 0.32447-0.46784 0.2389-0.86487 0.59646-1.1516 1.037h-0.073764v-1.1504h-2.4763v8.4434h2.6343v-4.4909c-0.038076-0.45992 0.10656-0.9163 0.40251-1.27 0.296-0.35373 0.71935-0.57622 1.178-0.61913h0.10012c0.83775 0 1.4594 0.52772 1.4594 1.8576v4.5225h2.6344z" fill="#fff" stroke-width=".99599"/>
</svg>
