<svg width="298" height="120" viewBox="0 0 298 120" fill="none" xmlns="http://www.w3.org/2000/svg">
<g clip-path="url(#clip0_45_387)">
<path d="M12.4596 51.0477C10.2609 51.0477 8.38275 50.7029 6.8253 50.0134C5.26785 49.3239 3.96234 48.3815 2.93167 47.1864C1.90101 45.9912 1.16809 44.5662 0.687111 42.9113C0.229037 41.2794 0 39.4867 0 37.579V13.4687C0 11.515 0.229037 9.69929 0.687111 8.06742C1.14518 6.43555 1.90101 5.01053 2.93167 3.79238C3.96234 2.5972 5.24495 1.65486 6.8253 0.988316C8.38275 0.321777 10.2609 0 12.4596 0C14.6584 0 16.651 0.298793 18.1855 0.919364C19.6972 1.53993 20.9111 2.39035 21.8043 3.49358C22.6976 4.59682 23.3389 5.9299 23.7053 7.46983C24.0718 9.00977 24.255 10.6876 24.255 12.5034V18.3873H16.6281V11.8368C16.6281 10.2739 16.3303 9.05574 15.7577 8.22831C15.1622 7.40088 14.1316 6.98717 12.597 6.98717C11.0625 6.98717 9.98601 7.46983 9.34471 8.41218C8.7034 9.35453 8.35985 10.6187 8.35985 12.1356V38.9121C8.35985 40.429 8.6805 41.6702 9.34471 42.6355C10.0089 43.6008 11.0854 44.0605 12.597 44.0605C14.1087 44.0605 15.1622 43.6238 15.7577 42.7275C16.3532 41.8541 16.6281 40.6589 16.6281 39.1879V29.9943H24.255V38.5903C24.255 40.3601 24.0489 41.992 23.6595 43.5089C23.2702 45.0259 22.6059 46.336 21.6898 47.4392C20.7507 48.5424 19.5369 49.4158 18.0252 50.0594C16.5136 50.7029 14.6584 51.0247 12.4596 51.0247V51.0477Z" fill="#253D86"/>
<path d="M42.9445 50.4501V47.0025H42.7154C42.4635 47.4392 42.1657 47.8989 41.7993 48.3586C41.4328 48.8182 40.9747 49.2549 40.448 49.6457C39.9212 50.0364 39.2799 50.3582 38.5699 50.634C37.8598 50.9098 37.0353 51.0477 36.1192 51.0477C33.2791 51.0477 31.1491 50.2203 29.7519 48.5424C28.3319 46.8646 27.6219 44.1984 27.6219 40.521V37.3492C27.6219 35.6254 27.8738 34.1774 28.3548 33.0052C28.8358 31.833 29.5 30.8217 30.3245 29.9943C31.1491 29.1668 32.1568 28.4313 33.3249 27.8338C34.493 27.2362 35.7756 26.6156 37.1269 26.041C38.3408 25.5124 39.3257 25.0297 40.1044 24.616C40.8602 24.2023 41.4557 23.8115 41.868 23.4438C42.2803 23.076 42.5551 22.6853 42.7154 22.2946C42.8528 21.9039 42.9445 21.4672 42.9445 20.9615V19.0538C42.9445 17.5828 42.7154 16.5256 42.2573 15.859C41.7993 15.1925 40.9518 14.8707 39.7379 14.8707C38.524 14.8707 37.5392 15.2155 36.9895 15.928C36.4169 16.6405 36.1421 17.6978 36.1421 19.1228V23.2369H28.8129V19.6974C28.8129 17.9276 28.9961 16.3417 29.4084 14.9167C29.7977 13.4917 30.439 12.2735 31.3552 11.2852C32.2484 10.2739 33.4165 9.51543 34.8366 8.96381C36.2566 8.43517 37.9973 8.15936 40.0357 8.15936C43.998 8.15936 46.8152 9.14768 48.5101 11.1473C50.2049 13.1239 51.0295 16.0429 51.0295 19.8583V50.4501H42.9674H42.9445ZM39.2112 44.5662C40.677 44.5662 41.6619 44.1525 42.1886 43.325C42.6925 42.4976 42.9674 41.4403 42.9674 40.1532V29.4886C42.8299 29.6955 42.6467 29.8564 42.4635 29.9943C42.2573 30.1322 42.0283 30.316 41.7306 30.4999C41.4328 30.7068 41.0664 30.9136 40.6312 31.1665C40.196 31.4193 39.6234 31.6951 38.9363 32.0398C37.6537 32.7753 36.8063 33.4878 36.3711 34.2004C35.9359 34.9129 35.7069 36.0161 35.7069 37.556V40.1302C35.7069 41.4174 35.9359 42.4516 36.394 43.3021C36.8521 44.1295 37.7911 44.5432 39.2112 44.5432V44.5662Z" fill="#253D86"/>
<path d="M62.8019 40.1532C62.8019 41.4403 63.0309 42.4516 63.489 43.2331C63.9471 44.0146 64.8861 44.4053 66.3062 44.4053C67.7262 44.4053 68.6882 44.0146 69.192 43.2331C69.6959 42.4516 69.9708 41.4174 69.9708 40.1532V8.75694H78.0329V50.4501H69.9708V46.1751H69.8333C69.5814 46.7727 69.2607 47.3473 68.8714 47.9448C68.482 48.5424 68.001 49.0481 67.4056 49.4848C66.8101 49.9215 66.1229 50.2892 65.3213 50.588C64.5197 50.8868 63.5806 51.0247 62.5042 51.0247C59.9619 51.0247 58.0379 50.1973 56.7095 48.5194C55.3811 46.8416 54.7398 44.1754 54.7398 40.498V8.75694H62.8019V40.1532Z" fill="#253D86"/>
<path d="M105.403 33.9705V38.8891C105.403 42.6585 104.487 45.6235 102.7 47.784C100.891 49.9445 97.982 51.0247 93.9738 51.0247C91.9583 51.0247 90.2176 50.7259 88.706 50.1054C87.1943 49.4848 85.9346 48.6114 84.9727 47.4852C84.0107 46.3589 83.2549 45.0259 82.7739 43.4859C82.293 41.946 82.041 40.2452 82.041 38.3835V20.8006C82.041 17.0312 83.0259 13.9743 84.9727 11.6529C86.9195 9.33155 89.9428 8.15936 93.9967 8.15936C98.0507 8.15936 100.914 9.21663 102.723 11.3542C104.532 13.4917 105.426 16.4336 105.426 20.226V23.2369H97.6613V19.4905C97.6613 18.0655 97.3865 16.9393 96.8139 16.1119C96.2413 15.2844 95.3023 14.8707 93.9967 14.8707C92.6912 14.8707 91.6377 15.3074 91.0193 16.1578C90.4009 17.0082 90.1031 18.1574 90.1031 19.5825V39.6706C90.1031 41.0956 90.4238 42.2448 91.088 43.0952C91.7522 43.9456 92.737 44.3823 94.0655 44.3823C95.3939 44.3823 96.4016 43.9686 96.9971 43.1412C97.5926 42.3137 97.8675 41.1645 97.8675 39.6936V34.0395H105.426L105.403 33.9705Z" fill="#253D86"/>
<path d="M123.336 50.4501V47.0025H123.107C122.855 47.4392 122.558 47.8989 122.191 48.3586C121.825 48.8182 121.367 49.2549 120.84 49.6457C120.313 50.0364 119.672 50.3582 118.962 50.634C118.252 50.9098 117.427 51.0477 116.511 51.0477C113.671 51.0477 111.541 50.2203 110.144 48.5424C108.724 46.8646 108.014 44.1984 108.014 40.521V37.3492C108.014 35.6254 108.266 34.1774 108.747 33.0052C109.228 31.833 109.892 30.8217 110.716 29.9943C111.541 29.1668 112.549 28.4313 113.717 27.8338C114.885 27.2362 116.168 26.6156 117.519 26.041C118.733 25.5124 119.718 25.0297 120.496 24.616C121.252 24.2023 121.848 23.8115 122.26 23.4438C122.672 23.076 122.947 22.6853 123.107 22.2946C123.245 21.9039 123.336 21.4672 123.336 20.9615V19.0538C123.336 17.5828 123.107 16.5256 122.649 15.859C122.191 15.1925 121.344 14.8707 120.13 14.8707C118.916 14.8707 117.931 15.2155 117.381 15.928C116.809 16.6405 116.534 17.6978 116.534 19.1228V23.2369H109.205V19.6974C109.205 17.9276 109.388 16.3417 109.8 14.9167C110.19 13.4917 110.831 12.2735 111.747 11.2852C112.64 10.2739 113.808 9.51543 115.228 8.96381C116.648 8.43517 118.389 8.15936 120.428 8.15936C124.39 8.15936 127.207 9.14768 128.902 11.1473C130.597 13.1239 131.421 16.0429 131.421 19.8583V50.4501H123.359H123.336ZM119.603 44.5662C121.069 44.5662 122.054 44.1525 122.581 43.325C123.084 42.4976 123.359 41.4403 123.359 40.1532V29.4886C123.222 29.6955 123.039 29.8564 122.855 29.9943C122.649 30.1322 122.42 30.316 122.122 30.4999C121.825 30.7068 121.458 30.9136 121.023 31.1665C120.588 31.4193 120.015 31.6951 119.328 32.0398C118.046 32.7753 117.198 33.4878 116.763 34.2004C116.328 34.9129 116.099 36.0161 116.099 37.556V40.1302C116.099 41.4174 116.328 42.4516 116.786 43.3021C117.244 44.1295 118.183 44.5432 119.603 44.5432V44.5662Z" fill="#253D86"/>
<path d="M157.211 40.0153C157.211 43.394 156.295 46.0831 154.508 48.0598C152.699 50.0364 149.859 51.0477 146.011 51.0477C142.163 51.0477 139.529 50.0364 137.697 48.0368C135.865 46.0372 134.949 43.2331 134.949 39.6476V35.3036H142.209V40.0153C142.209 42.9113 143.446 44.3593 145.942 44.3593C148.439 44.3593 149.607 43.1182 149.607 40.6129V39.4407C149.607 38.4064 149.286 37.4641 148.622 36.6137C147.958 35.7633 146.698 34.6141 144.843 33.1891L141.774 30.7527C139.621 29.0979 137.995 27.443 136.895 25.7882C135.796 24.1333 135.246 22.0188 135.246 19.4216V18.3873C135.246 15.3994 136.117 12.9401 137.88 11.0324C139.644 9.1247 142.415 8.15936 146.24 8.15936C150.065 8.15936 152.974 9.14768 154.554 11.1013C156.135 13.055 156.936 15.7901 156.936 19.2607V21.5361H149.744V18.8929C149.744 17.5599 149.47 16.5715 148.943 15.882C148.393 15.1925 147.5 14.8477 146.24 14.8477C144.98 14.8477 144.087 15.1465 143.56 15.7671C143.057 16.3877 142.782 17.1691 142.782 18.1574V18.824C142.782 19.8123 143.079 20.6857 143.652 21.4672C144.225 22.2486 145.232 23.145 146.652 24.1103L149.584 26.4547C151.004 27.5809 152.195 28.5692 153.18 29.4426C154.165 30.2931 154.944 31.1665 155.516 32.0628C156.089 32.9592 156.524 33.9016 156.799 34.9358C157.074 35.9701 157.211 37.1883 157.211 38.6133V40.0153Z" fill="#253D86"/>
<path d="M168.777 40.1532C168.777 41.4403 169.006 42.4516 169.464 43.2331C169.922 44.0146 170.862 44.4053 172.282 44.4053C173.702 44.4053 174.664 44.0146 175.167 43.2331C175.671 42.4516 175.946 41.4174 175.946 40.1532V8.75694H184.008V50.4501H175.946V46.1751H175.809C175.557 46.7727 175.236 47.3473 174.847 47.9448C174.457 48.5424 173.976 49.0481 173.381 49.4848C172.785 49.9215 172.098 50.2892 171.297 50.588C170.495 50.8868 169.556 51.0247 168.48 51.0247C165.937 51.0247 164.013 50.1973 162.685 48.5194C161.357 46.8416 160.715 44.1755 160.715 40.498V8.75694H168.777V40.1532Z" fill="#253D86"/>
<path d="M210.05 40.0153C210.05 43.394 209.134 46.0831 207.347 48.0598C205.538 50.0364 202.698 51.0477 198.85 51.0477C195.002 51.0477 192.368 50.0364 190.536 48.0368C188.704 46.0372 187.787 43.2331 187.787 39.6476V35.3036H195.048V40.0153C195.048 42.9113 196.285 44.3593 198.781 44.3593C201.278 44.3593 202.446 43.1182 202.446 40.6129V39.4407C202.446 38.4064 202.125 37.4641 201.461 36.6137C200.797 35.7633 199.537 34.6141 197.682 33.1891L194.613 30.7527C192.46 29.0979 190.834 27.443 189.734 25.7882C188.635 24.1333 188.085 22.0188 188.085 19.4216V18.3873C188.085 15.3994 188.955 12.9401 190.719 11.0324C192.483 9.1247 195.254 8.15936 199.079 8.15936C202.904 8.15936 205.813 9.14768 207.393 11.1013C208.973 13.055 209.775 15.7901 209.775 19.2607V21.5361H202.583V18.8929C202.583 17.5599 202.308 16.5715 201.782 15.882C201.232 15.1925 200.339 14.8477 199.079 14.8477C197.819 14.8477 196.926 15.1465 196.399 15.7671C195.895 16.3877 195.62 17.1691 195.62 18.1574V18.824C195.62 19.8123 195.918 20.6857 196.491 21.4672C197.063 22.2486 198.071 23.145 199.491 24.1103L202.423 26.4547C203.843 27.5809 205.034 28.5692 206.019 29.4426C207.004 30.2931 207.782 31.1665 208.355 32.0628C208.927 32.9592 209.363 33.9016 209.637 34.9358C209.912 35.9701 210.05 37.1883 210.05 38.6133V40.0153Z" fill="#253D86"/>
<path d="M235.565 50.4501V47.0025H235.335C235.084 47.4392 234.786 47.8989 234.419 48.3586C234.053 48.8182 233.595 49.2549 233.068 49.6457C232.541 50.0364 231.9 50.3582 231.19 50.634C230.48 50.9098 229.655 51.0477 228.739 51.0477C225.899 51.0477 223.769 50.2203 222.372 48.5424C220.952 46.8646 220.242 44.1984 220.242 40.521V37.3492C220.242 35.6254 220.494 34.1774 220.975 33.0052C221.456 31.833 222.12 30.8217 222.945 29.9943C223.769 29.1668 224.777 28.4313 225.945 27.8338C227.113 27.2362 228.396 26.6156 229.747 26.041C230.961 25.5124 231.946 25.0297 232.724 24.616C233.48 24.2023 234.076 23.8115 234.488 23.4438C234.9 23.076 235.175 22.6853 235.335 22.2946C235.473 21.9039 235.565 21.4672 235.565 20.9615V19.0538C235.565 17.5828 235.335 16.5256 234.877 15.859C234.419 15.1925 233.572 14.8707 232.358 14.8707C231.144 14.8707 230.159 15.2155 229.61 15.928C229.037 16.6405 228.762 17.6978 228.762 19.1228V23.2369H221.433V19.6974C221.433 17.9276 221.616 16.3417 222.028 14.9167C222.418 13.4917 223.059 12.2735 223.975 11.2852C224.868 10.2739 226.037 9.51543 227.457 8.96381C228.877 8.43517 230.617 8.15936 232.656 8.15936C236.618 8.15936 239.435 9.14768 241.13 11.1473C242.825 13.1239 243.65 16.0429 243.65 19.8583V50.4501H235.587H235.565ZM231.831 44.5662C233.297 44.5662 234.282 44.1525 234.809 43.325C235.313 42.4976 235.587 41.4403 235.587 40.1532V29.4886C235.45 29.6955 235.267 29.8564 235.084 29.9943C234.877 30.1322 234.648 30.316 234.351 30.4999C234.053 30.7068 233.686 30.9136 233.251 31.1665C232.816 31.4193 232.243 31.6951 231.556 32.0398C230.274 32.7753 229.426 33.4878 228.991 34.2004C228.556 34.9129 228.327 36.0161 228.327 37.556V40.1302C228.327 41.4174 228.556 42.4516 229.014 43.3021C229.472 44.1295 230.411 44.5432 231.831 44.5432V44.5662Z" fill="#253D86"/>
<path d="M262.751 19.0538C262.751 17.7897 262.522 16.7554 262.064 15.974C261.606 15.1925 260.667 14.8018 259.247 14.8018C257.827 14.8018 256.865 15.1925 256.361 15.974C255.857 16.7554 255.582 17.7897 255.582 19.0538V50.4501H247.52V8.75695H255.582V13.032H255.72C256.201 11.8138 257.002 10.6876 258.102 9.67631C259.201 8.66501 260.827 8.15936 262.98 8.15936C265.523 8.15936 267.469 8.98679 268.798 10.6646C270.149 12.3425 270.813 15.0086 270.813 18.6861V50.4501H262.751V19.0538Z" fill="#253D86"/>
<path d="M298 50.4501H289.938V46.1751H289.8C289.548 46.7726 289.251 47.3472 288.884 47.9448C288.518 48.5424 288.06 49.0481 287.533 49.4848C287.006 49.9215 286.342 50.2892 285.586 50.588C284.83 50.8868 283.914 51.0247 282.838 51.0247C280.25 51.0247 278.234 50.1973 276.791 48.5194C275.348 46.8416 274.638 44.1754 274.638 40.498V18.6631C274.638 14.9856 275.302 12.3195 276.654 10.6416C278.005 8.96379 279.975 8.13637 282.563 8.13637C284.716 8.13637 286.319 8.64202 287.396 9.65332C288.472 10.6646 289.274 11.7679 289.823 13.009H289.961V0.59758H298.023V50.4731L298 50.4501ZM282.677 40.2222C282.677 41.5093 282.929 42.5206 283.41 43.302C283.891 44.0835 284.853 44.4742 286.273 44.4742C287.693 44.4742 288.655 44.0835 289.159 43.302C289.663 42.5206 289.938 41.4863 289.938 40.2222V18.5252C289.846 17.399 289.526 16.5026 288.976 15.8131C288.449 15.1235 287.533 14.7788 286.273 14.7788C284.853 14.7788 283.891 15.1695 283.41 15.951C282.929 16.7324 282.677 17.7667 282.677 19.0308V40.2222Z" fill="#253D86"/>
<path d="M12.4596 120C10.2609 120 8.38275 119.655 6.8253 118.966C5.26785 118.276 3.96234 117.334 2.93167 116.139C1.90101 114.943 1.16809 113.518 0.687111 111.864C0.229037 110.232 0 108.439 0 106.531V82.398C0 80.4444 0.229037 78.6286 0.687111 76.9967C1.14518 75.3649 1.90101 73.9399 2.93167 72.7217C3.96234 71.5265 5.24495 70.5842 6.8253 69.9176C8.38275 69.2511 10.2609 68.9293 12.4596 68.9293C14.6584 68.9293 16.651 69.2281 18.1855 69.8487C19.6972 70.4693 20.9111 71.3197 21.8043 72.4229C22.6976 73.5261 23.3389 74.8592 23.7053 76.3992C24.0718 77.9391 24.255 79.6169 24.255 81.4327V87.3166H16.6281V80.7661C16.6281 79.2032 16.3303 77.9851 15.7577 77.1576C15.1622 76.3302 14.1316 75.9165 12.597 75.9165C11.0625 75.9165 9.98601 76.3992 9.34471 77.3415C8.7034 78.2839 8.35985 79.548 8.35985 81.0649V107.841C8.35985 109.358 8.6805 110.599 9.34471 111.565C10.0089 112.53 11.0854 112.99 12.597 112.99C14.1087 112.99 15.1622 112.553 15.7577 111.657C16.3532 110.783 16.6281 109.588 16.6281 108.117V98.9236H24.255V107.52C24.255 109.289 24.0489 110.921 23.6595 112.438C23.2702 113.955 22.6059 115.265 21.6898 116.369C20.7507 117.472 19.5369 118.345 18.0252 118.989C16.5136 119.632 14.6584 119.954 12.4596 119.954V120Z" fill="#253D86"/>
<path d="M51.4417 102.923V107.841C51.4417 111.611 50.5256 114.576 48.6933 116.736C46.861 118.897 43.9293 119.977 39.9441 119.977C37.9285 119.977 36.1879 119.678 34.6762 119.058C33.1646 118.437 31.9049 117.564 30.9429 116.437C29.9809 115.311 29.2251 113.978 28.7442 112.438C28.2632 110.898 28.0112 109.197 28.0112 107.336V89.7529C28.0112 85.9835 28.9961 82.9267 30.9429 80.6053C32.8897 78.2839 35.913 77.1117 39.967 77.1117C44.0209 77.1117 46.8839 78.1919 48.7162 80.3524C50.5485 82.5129 51.4646 85.4779 51.4646 89.2473V99.3143H36.0733V108.577C36.0733 110.002 36.394 111.151 37.0582 112.002C37.7224 112.852 38.7302 113.289 40.1044 113.289C41.4786 113.289 42.3718 112.875 42.9673 112.048C43.5628 111.22 43.8377 110.071 43.8377 108.6V102.946H51.4646L51.4417 102.923ZM36.0504 93.4304H43.6774V88.5118C43.6774 87.0868 43.3796 85.9606 42.807 85.0872C42.2115 84.2367 41.2725 83.8 39.9441 83.8C38.6156 83.8 37.585 84.2367 36.9666 85.0872C36.3482 85.9376 36.0504 87.0868 36.0504 88.5118V93.4304Z" fill="#253D86"/>
<path d="M70.6579 88.0061C70.6579 86.742 70.4289 85.7077 69.9708 84.9263C69.5127 84.1448 68.5737 83.7541 67.1536 83.7541C65.7336 83.7541 64.7716 84.1448 64.2678 84.9263C63.7639 85.7077 63.489 86.742 63.489 88.0061V119.402H55.4269V77.7093H63.489V81.9843H63.6265C64.1074 80.7661 64.9091 79.6399 66.0084 78.6286C67.1078 77.6173 68.734 77.1117 70.8869 77.1117C73.4292 77.1117 75.3761 77.9391 76.7045 79.6169C78.0558 81.2948 78.72 83.9609 78.72 87.6384V119.402H70.6579V88.0061Z" fill="#253D86"/>
<path d="M81.3539 77.7093H84.3543V69.5499H92.3477V77.7093H97.4094V83.892H92.3477V110.599C92.3477 111.427 92.5309 112.025 92.8974 112.369C93.2639 112.714 93.9052 112.875 94.8442 112.875H97.4094V119.425H93.9739C90.3551 119.425 87.8586 118.713 86.4615 117.288C85.0643 115.863 84.3772 113.495 84.3772 110.163V83.915H81.3768V77.7322L81.3539 77.7093Z" fill="#253D86"/>
<path d="M115.297 86.9029H113.03C111.564 86.9029 110.51 87.2476 109.846 87.9372C109.182 88.6267 108.861 89.684 108.861 91.109V119.425H100.799V77.7322H108.861V82.0073H108.999C109.342 81.019 109.984 80.0536 110.9 79.0653C111.816 78.077 113.282 77.5484 115.297 77.4564V86.9489V86.9029Z" fill="#253D86"/>
<path d="M132.223 119.402V115.955H131.994C131.742 116.392 131.444 116.851 131.078 117.311C130.711 117.771 130.253 118.207 129.727 118.598C129.2 118.989 128.558 119.31 127.848 119.586C127.138 119.862 126.314 120 125.398 120C122.558 120 120.428 119.173 119.031 117.495C117.611 115.817 116.901 113.151 116.901 109.473V106.301C116.901 104.578 117.152 103.13 117.633 101.957C118.114 100.785 118.779 99.774 119.603 98.9466C120.428 98.1191 121.435 97.3837 122.604 96.7861C123.772 96.1885 125.054 95.5679 126.406 94.9933C127.619 94.4647 128.604 93.982 129.383 93.5683C130.139 93.1546 130.734 92.7639 131.147 92.3961C131.559 92.0284 131.834 91.6376 131.994 91.2469C132.131 90.8562 132.223 90.4195 132.223 89.9138V88.0061C132.223 86.5352 131.994 85.4779 131.536 84.8114C131.078 84.1448 130.23 83.823 129.017 83.823C127.803 83.823 126.818 84.1678 126.268 84.8803C125.696 85.5928 125.421 86.6501 125.421 88.0751V92.1892H118.092V88.6497C118.092 86.8799 118.275 85.294 118.687 83.869C119.076 82.444 119.718 81.2258 120.634 80.2375C121.527 79.2262 122.695 78.4677 124.115 77.9161C125.535 77.3875 127.276 77.1117 129.314 77.1117C133.277 77.1117 136.094 78.1 137.789 80.0996C139.484 82.0762 140.308 84.9952 140.308 88.8106V119.402H132.246H132.223ZM128.49 113.518C129.956 113.518 130.94 113.105 131.467 112.277C131.971 111.45 132.246 110.393 132.246 109.106V98.4409C132.109 98.6478 131.925 98.8087 131.742 98.9466C131.536 99.0845 131.307 99.2684 131.009 99.4522C130.711 99.6591 130.345 99.8659 129.91 100.119C129.475 100.372 128.902 100.647 128.215 100.992C126.932 101.728 126.085 102.44 125.65 103.153C125.215 103.865 124.986 104.968 124.986 106.508V109.083C124.986 110.37 125.215 111.404 125.673 112.254C126.131 113.082 127.07 113.496 128.49 113.496V113.518Z" fill="#253D86"/>
<path d="M144.156 69.5499H152.218V119.425H144.156V69.5499Z" fill="#253D86"/>
<path d="M162.044 119.402L171.434 69.5269H180.962L190.421 119.402H181.855L180.321 110.278H171.457L169.991 119.402H162.067H162.044ZM172.534 103.589H179.199L175.9 83.5932H175.832L172.534 103.589Z" fill="#253D86"/>
<path d="M214.379 108.968C214.379 112.346 213.462 115.035 211.676 117.012C209.867 118.989 207.027 120 203.179 120C199.331 120 196.697 118.989 194.865 116.989C193.032 114.989 192.116 112.185 192.116 108.6V104.256H199.377V108.968C199.377 111.864 200.613 113.312 203.11 113.312C205.606 113.312 206.775 112.07 206.775 109.565V108.393C206.775 107.359 206.454 106.416 205.79 105.566C205.126 104.716 203.866 103.566 202.011 102.141L198.942 99.7051C196.789 98.0502 195.162 96.3953 194.063 94.7405C192.964 93.0856 192.414 90.9711 192.414 88.3739V87.3396C192.414 84.3517 193.284 81.8924 195.048 79.9847C196.811 78.077 199.583 77.1117 203.408 77.1117C207.233 77.1117 210.141 78.1 211.722 80.0536C213.302 82.0073 214.104 84.7424 214.104 88.213V90.4884H206.912V87.8453C206.912 86.5122 206.637 85.5239 206.11 84.8343C205.561 84.1448 204.667 83.8 203.408 83.8C202.148 83.8 201.255 84.0988 200.728 84.7194C200.224 85.34 199.949 86.1214 199.949 87.1098V87.7763C199.949 88.7646 200.247 89.638 200.82 90.4195C201.392 91.2009 202.4 92.0973 203.82 93.0626L206.752 95.407C208.172 96.5332 209.363 97.5216 210.348 98.395C211.332 99.2454 212.111 100.119 212.684 101.015C213.256 101.912 213.691 102.854 213.966 103.888C214.241 104.922 214.379 106.141 214.379 107.566V108.968Z" fill="#253D86"/>
<path d="M218.043 69.5499H226.105V75.8705H218.043V69.5499ZM218.043 77.7093H226.105V119.402H218.043V77.7093Z" fill="#253D86"/>
<path d="M245.001 119.402V115.955H244.772C244.52 116.392 244.222 116.851 243.856 117.311C243.489 117.771 243.031 118.207 242.504 118.598C241.978 118.989 241.336 119.31 240.626 119.586C239.916 119.862 239.092 120 238.175 120C235.335 120 233.205 119.173 231.808 117.495C230.388 115.817 229.678 113.151 229.678 109.473V106.301C229.678 104.578 229.93 103.13 230.411 101.957C230.892 100.785 231.556 99.774 232.381 98.9466C233.205 98.1191 234.213 97.3837 235.381 96.7861C236.549 96.1885 237.832 95.5679 239.183 94.9933C240.397 94.4647 241.382 93.982 242.161 93.5683C242.917 93.1546 243.512 92.7639 243.924 92.3961C244.337 92.0284 244.611 91.6376 244.772 91.2469C244.909 90.8562 245.001 90.4195 245.001 89.9138V88.0061C245.001 86.5352 244.772 85.4779 244.314 84.8114C243.856 84.1448 243.008 83.823 241.794 83.823C240.58 83.823 239.596 84.1678 239.046 84.8803C238.473 85.5928 238.198 86.6501 238.198 88.0751V92.1892H230.869V88.6497C230.869 86.8799 231.052 85.294 231.465 83.869C231.854 82.444 232.495 81.2258 233.412 80.2375C234.305 79.2262 235.473 78.4677 236.893 77.9161C238.313 77.3875 240.054 77.1117 242.092 77.1117C246.054 77.1117 248.872 78.1 250.566 80.0996C252.261 82.0762 253.086 84.9952 253.086 88.8106V119.402H245.024H245.001ZM241.267 113.518C242.733 113.518 243.718 113.105 244.245 112.277C244.749 111.45 245.024 110.393 245.024 109.106V98.4409C244.886 98.6478 244.703 98.8087 244.52 98.9466C244.314 99.0845 244.085 99.2684 243.787 99.4522C243.489 99.6591 243.123 99.8659 242.688 100.119C242.252 100.372 241.68 100.647 240.993 100.992C239.71 101.728 238.863 102.44 238.427 103.153C237.992 103.865 237.763 104.968 237.763 106.508V109.083C237.763 110.37 237.992 111.404 238.45 112.254C238.908 113.082 239.847 113.496 241.267 113.496V113.518Z" fill="#253D86"/>
</g>
<defs>
<clipPath id="clip0_45_387">
<rect width="298" height="120" fill="white"/>
</clipPath>
</defs>
</svg>
