<svg width="152" height="64" viewBox="0 0 152 64" fill="none" xmlns="http://www.w3.org/2000/svg">
<path d="M117.157 2.18726V32.0882L116.782 32.4033L116.407 32.7184L116.048 33.0492L115.704 33.38L115.375 33.7109L115.047 34.0575L114.735 34.404L114.422 34.7506V2.18726H81.5492V29.4101H78.8293V2.18726H45.9566V29.4573H43.2367V2.18726H10.364V33.2698L1.96991 61.4535H9.34792L13.0526 48.9764H14.1155L20.243 61.4535H29.1528L23.2129 48.9764H36.6872L32.9513 61.4535H41.0014L44.6904 49.0079H46.4724V48.9763H49.0047H49.2079H64.4172L60.8532 61.422H68.9816L72.4361 48.9763H76.0938L76.1875 61.422H83.0028L90.8341 48.9763H95.9612L93.3039 61.422H101.307L103.918 48.9763H108.544L108.513 49.6853L108.53 50.41L108.561 51.1031L108.623 51.7963L108.67 52.1271L108.717 52.458L108.78 52.7888L108.842 53.1196L108.92 53.4505L108.998 53.7655L109.092 54.0806L109.186 54.3957L109.295 54.7108L109.405 55.0101L109.53 55.3094L109.655 55.593L109.796 55.8923L109.936 56.1759L110.093 56.4437L110.249 56.7273L110.421 56.9951L110.609 57.2472L110.796 57.515L110.999 57.7513L111.203 58.0033L111.406 58.2397L111.64 58.476L111.875 58.6965L112.172 58.9486L112.469 59.2007L112.781 59.4369L113.11 59.6575L113.438 59.8781L113.766 60.0829L114.11 60.2561L114.47 60.4451L114.814 60.6026L115.173 60.7602L115.533 60.902L115.908 61.0438L116.283 61.1699L116.658 61.2802L117.033 61.3904L117.408 61.485L118.159 61.6582L118.925 61.7843L119.675 61.8946L120.425 61.9891L121.16 62.0521L121.879 62.0836L122.582 62.1152H123.254L124.161 62.1003L125.068 62.0853L125.99 62.0381L126.912 61.9908L127.834 61.9119L128.757 61.8331L129.679 61.7385L130.601 61.6283L131.539 61.5022L132.477 61.3603L133.415 61.2028L134.353 61.0453L135.291 60.8721L136.228 60.683L137.166 60.494L138.12 60.2734L140.902 48.9779H150.031V2.18871L117.157 2.18726ZM13.4121 47.8106L13.4589 47.6374L13.5684 47.8106H13.4121ZM42.0487 31.0484L41.5798 32.6396L37.203 47.2908L37.031 47.8106H22.6502L21.5403 45.416L37.031 29.4573H27.0738L14.9595 42.6118L18.883 29.4573H11.5363V3.36881H42.0487L42.0487 31.0484ZM50.5365 43.431L50.3021 43.446L50.0832 43.4609L49.8488 43.4759H49.5987H49.2704H48.989L48.7233 43.4908H48.4732L46.5193 43.4759L47.4259 40.1045L47.8479 38.4346L48.8796 34.5119H49.2079H49.5518L49.88 34.497H50.1927H51.7089L52.6311 34.5119L53.4752 34.5435L53.8504 34.5584L54.2099 34.59L54.5538 34.6373L54.8664 34.6846L55.1478 34.7318L55.4135 34.8107L55.6636 34.8895L55.8825 34.9841L56.07 35.0786L56.242 35.2048L56.3984 35.3309L56.5234 35.4884L56.6015 35.6145L56.6639 35.7407L56.7264 35.8825L56.7733 36.04L56.8045 36.2132L56.821 36.3864V36.5755V36.7803L56.8045 37.0008L56.7898 37.2214L56.7429 37.4734L56.6961 37.7255L56.5553 38.2611L56.3833 38.8598L56.2113 39.3639L56.0238 39.8523L55.8206 40.3091L55.6017 40.7345L55.4922 40.9236L55.3827 41.1126L55.2576 41.3016L55.1168 41.4748L54.9761 41.6481L54.8353 41.8056L54.6789 41.9631L54.5225 42.1049L54.3506 42.2311L54.1786 42.3729L53.991 42.4831L53.7878 42.6092L53.5846 42.7195L53.3657 42.814L53.1469 42.9086L52.9124 42.9874L52.6623 43.082L52.3966 43.145L52.1152 43.2079L51.8339 43.2709L51.5212 43.3182L51.2086 43.3654L50.8804 43.397L50.5365 43.4286L50.5365 43.431ZM72.7643 47.8106L75.9688 36.3103L76.0939 47.8106H72.7643ZM77.6413 29.4101H70.0132L64.7611 47.8106H56.664L57.0392 47.6531L57.4143 47.4956L57.7739 47.3381L58.1334 47.1649L58.4773 46.9917L58.8055 46.7868L59.1338 46.5978L59.4464 46.393L59.7591 46.1724L60.056 45.9519L60.3374 45.7313L60.6188 45.4793L60.8845 45.243L61.1346 44.9751L61.3847 44.7231L61.6192 44.4395L61.8537 44.1717L62.0725 43.8724L62.2757 43.5888L62.4789 43.2737L62.6665 42.9586L62.8385 42.6436L63.0105 42.3127L63.1668 41.9661L63.3232 41.6196L63.464 41.273L63.5889 40.9106L63.714 40.5325L63.8078 40.1544L63.9173 39.7763L63.9954 39.3667L64.0735 38.9729L64.183 38.3427L64.2767 37.7441L64.3392 37.177L64.386 36.6413L64.4026 36.1057L64.386 35.6173L64.3713 35.1289L64.3089 34.6721L64.2464 34.2467L64.1369 33.8214L64.0273 33.4275L63.871 33.0494L63.699 32.6871L63.5114 32.3247L63.2926 31.9939L63.0425 31.6788L62.8393 31.4583L62.636 31.2377L62.4172 31.0487L62.1828 30.8755L61.9326 30.7022L61.6825 30.5447L61.4168 30.4029L61.1511 30.2768L60.8697 30.1506L60.5883 30.0561L60.2913 29.9616L59.9943 29.867L59.6817 29.7881L59.3691 29.7252L59.0565 29.6622L58.7282 29.6149L58.0561 29.5204L57.3839 29.4731L56.6961 29.4258L55.9927 29.4109H54.5859H53.1947H52.757H51.9755H51.0063H49.9277H48.8804H47.9895H47.3642H47.1297V3.36965H77.6422L77.6413 29.4101ZM96.1801 47.8106H91.6001L98.5404 36.7829L96.1801 47.8106ZM113.234 29.9299L113.217 36.3103L112.827 36.8617L112.467 37.4288L112.108 37.9959L111.779 38.5631L111.467 39.1302L111.154 39.7131L110.888 40.2803L110.623 40.8474L110.372 41.3988L110.154 41.9659L109.935 42.5173L109.747 43.053L109.575 43.5886L109.419 44.1085L109.278 44.6126L109.153 45.1167L109.075 45.4475L108.997 45.7941L108.919 46.125L108.856 46.4715L108.794 46.8024L108.747 47.1332L108.7 47.464L108.669 47.8106H104.183L108.012 29.4573L95.1008 29.4424L83.5492 47.8114H82.7051V3.36962H113.233L113.234 29.9299ZM130.835 55.3253L130.194 55.4355L129.537 55.53L128.881 55.6246L128.24 55.7035L127.599 55.7664L126.958 55.8137L126.333 55.8453H125.708H125.301L124.895 55.8303L124.504 55.7987L124.113 55.7515L123.738 55.6885L123.379 55.6255L123.019 55.5467L122.675 55.4521L122.347 55.3419L122.019 55.2316L121.706 55.0898L121.409 54.948L121.112 54.7748L120.831 54.6016L120.565 54.4125L120.315 54.2235L120.065 54.0029L119.846 53.7666L119.627 53.5303L119.424 53.2625L119.236 52.9947L119.064 52.6953L118.908 52.396L118.752 52.0809L118.626 51.7501L118.517 51.3878L118.423 51.0254L118.33 50.6473L118.267 50.2535L118.22 49.8439L118.189 49.4185L118.172 48.9774H132.397L130.835 55.3253ZM148.873 47.8106H141.183L142.449 42.6749H127.036L125.77 47.8106H118.314V46.7551L118.408 46.314L118.486 45.8729L118.58 45.4003L118.673 44.9277L118.814 44.4078L118.955 43.8879L119.111 43.368L119.283 42.8639L119.471 42.3598L119.674 41.8556L119.893 41.3673L120.112 40.8789L120.362 40.3905L120.612 39.9337L120.878 39.461L121.175 39.0199L121.472 38.5788L121.769 38.1535L122.097 37.7439L122.441 37.35L122.8 36.9719L123.16 36.6253L123.551 36.2788L123.941 35.9479L124.348 35.6486L124.785 35.365L125.223 35.113L125.676 34.8767L126.145 34.6561L126.63 34.4671L127.13 34.3095L127.646 34.1834L128.177 34.0732L128.725 33.9943L129.287 33.947L129.866 33.9321L130.319 33.947L130.772 33.9786L131.226 34.0416L131.663 34.1361L131.882 34.1991L132.085 34.2621L132.289 34.3251L132.476 34.4196L132.664 34.4985L132.851 34.6087L133.023 34.7189L133.195 34.8292L133.352 34.971L133.508 35.1128L133.649 35.2547L133.789 35.4279L133.915 35.5854L134.024 35.7744L134.118 35.9792L134.212 36.184L134.29 36.4046L134.352 36.6409L134.399 36.8772L134.446 37.145L134.462 37.4128V37.6964V37.9957L134.431 38.3108H143.622L143.763 37.6649L143.888 36.9245L143.951 36.5306L143.982 36.1052L144.013 35.6799V35.2388L143.999 34.7819L143.952 34.3093L143.905 34.0888L143.874 33.8524L143.811 33.6161L143.749 33.3798L143.671 33.1278L143.592 32.8915L143.499 32.6552L143.389 32.4188L143.28 32.1825L143.139 31.9462L142.998 31.7099L142.842 31.4736L142.654 31.2215L142.451 30.9852L142.248 30.7489L142.029 30.5284L141.795 30.3078L141.544 30.103L141.294 29.914L141.029 29.7249L140.747 29.5359L140.466 29.3784L140.169 29.2208L139.856 29.0633L139.544 28.9215L139.215 28.7797L138.871 28.6536L138.528 28.5274L138.184 28.4172L137.809 28.3226L137.449 28.2281L137.058 28.1335L136.667 28.0547L136.277 27.9758L135.87 27.9129L135.448 27.8656L134.588 27.771L133.713 27.6922L132.791 27.6606L131.853 27.6457L131.15 27.6606L130.415 27.6756L129.649 27.7228L128.852 27.7858L128.023 27.8803L127.179 27.9906L126.319 28.1324L125.444 28.3215L125.006 28.416L124.553 28.5262L124.115 28.6524L123.662 28.7785L123.209 28.9203L122.756 29.0778L122.302 29.2354L121.865 29.4086L121.411 29.5976L120.958 29.8024L120.52 30.0072L120.067 30.2278L119.629 30.4641L119.192 30.7161L118.754 30.9682L118.316 31.2518V3.36734H148.876V47.8092L148.873 47.8106Z" fill="#003087"/>
</svg>
